# 3ds Max Wavefront OBJ Exporter v0.97b - (c)2007 guruware
# File Created: 12.08.2016 11:21:31

mtllib Robots_Grunt.mtl

#
# object Object001
#

v  72.0330 2.5121 -44.8749
v  71.7316 9.9445 -50.8436
v  71.7315 9.9445 58.8000
v  72.0330 2.5121 52.8313
v  33.7641 9.9445 -50.8436
v  33.7640 9.9445 58.8000
v  35.7391 40.5201 47.0496
v  35.7391 40.5201 -39.0931
v  69.7565 40.5201 -39.0932
v  67.5727 62.7997 -18.9528
v  67.5727 62.7997 26.9093
v  69.7565 40.5201 47.0496
v  37.9229 62.7997 26.9093
v  37.9229 62.7997 -18.9528
v  24.3528 57.7377 14.5934
v  34.0352 57.7377 14.5934
v  34.0352 67.9276 10.3726
v  24.3528 67.9276 10.3726
v  34.0352 72.1485 0.1826
v  24.3528 72.1485 0.1826
v  34.0352 67.9276 -10.0073
v  24.3528 67.9276 -10.0074
v  34.0353 57.7377 -14.2282
v  24.3528 57.7377 -14.2282
v  34.0352 47.5477 -10.0074
v  24.3528 47.5477 -10.0074
v  34.0352 43.3269 0.1826
v  24.3528 43.3269 0.1826
v  34.0352 47.5477 10.3726
v  24.3528 47.5477 10.3726
v  32.6396 67.8387 -7.4475
v  32.6396 74.8146 -5.1791
v  32.6396 74.8146 5.3116
v  32.6396 67.8387 7.5800
v  25.1986 67.8387 -7.4475
v  25.1986 67.8387 7.5800
v  25.1986 74.8146 5.3116
v  25.1986 74.8146 -5.1791
v  34.4632 81.6341 -7.3288
v  23.3750 81.6341 -7.3288
v  34.4632 81.6341 7.4613
v  23.3750 81.6341 7.4613
v  34.0352 57.7377 0.1826
v  33.4626 2.5121 -44.8749
v  33.4626 2.5121 52.8313
v  66.9175 68.4634 3.9782
v  38.5781 68.4634 3.9782
v  41.2141 66.2979 -0.3949
v  32.1849 66.2979 -0.3949
v  32.1849 57.1594 8.7436
v  41.2141 57.1594 8.7436
v  41.2141 58.1648 -8.5280
v  32.1849 58.1648 -8.5280
v  41.2141 49.0263 0.6105
v  32.1849 49.0263 0.6105
v  40.9446 89.3766 6.0576
v  33.2480 89.3766 6.0576
v  33.2480 83.1383 -0.1807
v  40.9446 83.1383 -0.1807
v  40.9446 95.2195 0.2147
v  33.2480 95.2195 0.2147
v  40.9446 88.9811 -6.0236
v  33.2480 88.9811 -6.0236
v  35.8189 1.2560 -45.4587
v  35.8188 1.2560 53.4152
v  69.6767 1.2560 53.4152
v  69.6767 1.2560 -45.4588
v  67.7961 41.2337 48.2367
v  69.4834 9.6887 60.1613
v  65.3079 69.8485 3.9782
v  65.8812 63.9819 27.6311
v  39.6143 63.9819 -19.6746
v  37.6994 41.2337 -40.2802
v  40.1877 69.8485 3.9782
v  36.0121 9.6887 -52.2049
v  72.6678 37.5275 -12.3097
v  69.6300 37.2082 -16.7142
v  68.5847 50.8817 -11.0287
v  71.8597 48.0984 -7.9142
v  68.1518 56.5454 2.6974
v  71.5250 52.4771 2.6974
v  68.5847 50.8817 16.4234
v  71.8597 48.0984 13.3090
v  72.6678 37.5275 17.7045
v  69.6300 37.2082 22.1089
v  73.4760 26.9565 13.3090
v  70.6753 23.5347 16.4234
v  71.1083 17.8710 2.6974
v  73.8107 22.5779 2.6974
v  70.6753 23.5347 -11.0287
v  73.4760 26.9565 -7.9142
v  77.7795 38.0647 -12.3097
v  76.9714 48.6356 -7.9142
v  76.6367 53.0142 2.6974
v  76.9714 48.6356 13.3090
v  77.7795 38.0647 17.7045
v  78.5876 27.4937 13.3090
v  78.9224 23.1151 2.6974
v  78.5876 27.4937 -7.9142
v  23.3067 99.7717 6.2739
v  23.3067 89.1455 12.4090
v  34.5625 89.1455 12.4090
v  34.5625 99.7717 6.2739
v  23.3067 99.7717 -5.9962
v  34.5625 99.7717 -5.9962
v  23.3067 89.1455 -12.1312
v  34.5625 89.1455 -12.1312
v  23.3067 78.5193 -5.9962
v  34.5625 78.5193 -5.9962
v  23.3067 78.5193 6.2739
v  34.5625 78.5193 6.2739
v  37.6994 41.2337 48.2367
v  36.0120 9.6887 60.1613
v  39.6143 63.9819 27.6311
v  67.7961 41.2337 -40.2803
v  65.8813 63.9819 -19.6746
v  69.4835 9.6887 -52.2049
# 117 vertices

vn 0.9992 0.0405 0.0000
vn 0.9985 0.0543 0.0000
vn 0.9992 0.0405 -0.0000
vn -0.9985 0.0543 -0.0000
vn -0.9972 0.0745 -0.0000
vn 0.9972 0.0745 -0.0000
vn 0.9951 0.0992 -0.0000
vn 0.9972 0.0745 0.0000
vn -0.9951 0.0992 -0.0000
vn 0.0000 0.0000 1.0000
vn 0.0000 0.7071 0.7071
vn 0.0000 1.0000 -0.0000
vn 0.0000 0.7071 -0.7071
vn 0.0000 0.0000 -1.0000
vn 0.0000 -0.7071 -0.7071
vn 0.0000 -1.0000 -0.0000
vn 0.0000 -0.7071 0.7071
vn 1.0000 0.0000 -0.0000
vn 0.9916 -0.1296 -0.0000
vn -1.0000 0.0000 -0.0000
vn -0.9916 -0.1296 -0.0000
vn 0.0000 0.3092 0.9510
vn 0.0000 -0.0191 0.9998
vn 0.0000 -0.3006 -0.9537
vn 0.0000 -0.0191 -0.9998
vn 0.9661 -0.2583 -0.0000
vn -0.9661 -0.2583 -0.0000
vn 0.0000 -0.3006 0.9537
vn 0.0000 0.3092 -0.9510
vn 1.0000 0.0000 0.0000
vn 1.0000 -0.0000 0.0000
vn -0.9992 0.0405 -0.0000
vn 0.9934 0.1149 -0.0000
vn -0.9934 0.1149 -0.0000
vn 0.0000 1.0000 0.0000
vn 0.0000 -0.0000 1.0000
vn 0.0000 -1.0000 0.0000
vn 0.0000 -0.0000 -1.0000
vn -0.5081 -0.7732 -0.3794
vn -0.5082 -0.7732 0.3794
vn -0.5067 -0.7747 0.3782
vn -0.5067 -0.7748 -0.3782
vn 0.5082 -0.7732 0.3794
vn 0.5082 -0.7732 -0.3794
vn 0.5067 -0.7747 -0.3782
vn 0.5067 -0.7747 0.3782
vn 0.5749 0.4632 0.6745
vn 0.5239 -0.1089 0.8448
vn 0.5254 -0.1222 0.8420
vn 0.5766 0.4560 0.6780
vn 0.6514 0.7588 -0.0014
vn 0.6331 0.6802 0.3696
vn 0.6328 0.6760 0.3777
vn 0.6515 0.7586 -0.0018
vn -0.6328 0.6760 -0.3777
vn -0.6331 0.6802 -0.3696
vn -0.5749 0.4632 -0.6745
vn -0.5766 0.4560 -0.6780
vn -0.6514 0.7588 0.0014
vn -0.6515 0.7586 0.0018
vn -0.5239 -0.1089 -0.8448
vn -0.5254 -0.1222 -0.8420
vn 0.5164 0.0381 -0.8555
vn 0.8196 0.0609 -0.5697
vn 0.7846 0.4671 -0.4076
vn 0.4576 0.6464 -0.6105
vn 0.7698 0.6383 -0.0000
vn 0.4329 0.9014 -0.0000
vn 0.7846 0.4672 0.4076
vn 0.4576 0.6464 0.6105
vn 0.5164 0.0381 0.8555
vn 0.8196 0.0609 0.5697
vn 0.5736 -0.5588 0.5990
vn 0.8535 -0.3361 0.3983
vn 0.8672 -0.4979 -0.0000
vn 0.5969 -0.8023 -0.0000
vn 0.8535 -0.3361 -0.3983
vn 0.5736 -0.5588 -0.5990
vn 0.6279 0.0534 -0.7765
vn 0.5785 0.6020 -0.5504
vn 0.5580 0.8298 -0.0000
vn 0.5785 0.6020 0.5504
vn 0.6279 0.0534 0.7765
vn 0.6772 -0.4919 0.5471
vn 0.6976 -0.7165 -0.0000
vn 0.6772 -0.4919 -0.5471
vn -0.6100 0.6862 0.3962
vn -0.6100 -0.0000 0.7924
vn 0.6100 -0.0000 0.7924
vn 0.6100 0.6862 0.3962
vn -0.6100 0.6862 -0.3962
vn 0.6100 0.6862 -0.3962
vn -0.6100 -0.0000 -0.7924
vn 0.6100 -0.0000 -0.7924
vn -0.6100 -0.6862 -0.3962
vn 0.6100 -0.6862 -0.3962
vn -0.6100 -0.6862 0.3962
vn 0.6100 -0.6862 0.3962
vn -0.5749 0.4632 0.6745
vn -0.5766 0.4560 0.6780
vn -0.5254 -0.1222 0.8420
vn -0.5239 -0.1089 0.8448
vn -0.6320 0.6774 0.3765
vn -0.6340 0.6802 0.3679
vn 0.6320 0.6774 -0.3765
vn 0.5766 0.4560 -0.6780
vn 0.5749 0.4632 -0.6745
vn 0.6340 0.6802 -0.3679
vn 0.5254 -0.1222 -0.8420
vn 0.5239 -0.1089 -0.8448
# 110 vertex normals

vt 0.3468 0.0208 0.0000
vt 0.3614 0.0346 0.0000
vt 0.0979 0.0346 0.0000
vt 0.1124 0.0208 0.0000
vt 0.3963 0.0334 0.0000
vt 0.6598 0.0334 0.0000
vt 0.6322 0.1044 0.0000
vt 0.4240 0.1044 0.0000
vt 0.3337 0.1056 0.0000
vt 0.2848 0.1572 0.0000
vt 0.1746 0.1572 0.0000
vt 0.1255 0.1056 0.0000
vt 0.5831 0.1560 0.0000
vt 0.4729 0.1560 0.0000
vt 0.6222 0.2182 0.0000
vt 0.6474 0.2182 0.0000
vt 0.6474 0.2468 0.0000
vt 0.6222 0.2468 0.0000
vt 0.6474 0.2743 0.0000
vt 0.6222 0.2743 0.0000
vt 0.6222 0.2748 0.0000
vt 0.6474 0.2748 0.0000
vt 0.6474 0.2461 0.0000
vt 0.6222 0.2461 0.0000
vt 0.6222 0.2467 0.0000
vt 0.6474 0.2467 0.0000
vt 0.6474 0.2180 0.0000
vt 0.6222 0.2180 0.0000
vt 0.6474 0.1894 0.0000
vt 0.6222 0.1894 0.0000
vt 0.6474 0.1607 0.0000
vt 0.6222 0.1607 0.0000
vt 0.6222 0.1609 0.0000
vt 0.6474 0.1609 0.0000
vt 0.6474 0.1895 0.0000
vt 0.6222 0.1895 0.0000
vt 0.8795 0.0630 0.0000
vt 0.8819 0.0427 0.0000
vt 0.9143 0.0415 0.0000
vt 0.9169 0.0612 0.0000
vt 0.9723 0.0679 0.0000
vt 0.9333 0.0628 0.0000
vt 0.9384 0.0433 0.0000
vt 0.9683 0.0492 0.0000
vt 0.9151 0.0215 0.0000
vt 0.9415 0.0233 0.0000
vt 0.8784 0.0225 0.0000
vt 0.9788 0.0332 0.0000
vt 0.5378 0.2455 0.0000
vt 0.5281 0.2223 0.0000
vt 0.5610 0.2223 0.0000
vt 0.5939 0.2223 0.0000
vt 0.5842 0.2455 0.0000
vt 0.5610 0.2552 0.0000
vt 0.5842 0.1991 0.0000
vt 0.5610 0.1894 0.0000
vt 0.5378 0.1991 0.0000
vt 0.4109 0.0196 0.0000
vt 0.6453 0.0196 0.0000
vt 0.2296 0.1695 0.0000
vt 0.5281 0.1683 0.0000
vt 0.4330 0.2443 0.0000
vt 0.3895 0.2443 0.0000
vt 0.3895 0.1892 0.0000
vt 0.4330 0.1892 0.0000
vt 0.4330 0.2718 0.0000
vt 0.3895 0.2718 0.0000
vt 0.4330 0.3269 0.0000
vt 0.3895 0.3269 0.0000
vt 0.3895 0.1616 0.0000
vt 0.4330 0.1616 0.0000
vt 0.4297 0.2415 0.0000
vt 0.3914 0.2415 0.0000
vt 0.3914 0.1944 0.0000
vt 0.4297 0.1944 0.0000
vt 0.4297 0.2650 0.0000
vt 0.3914 0.2650 0.0000
vt 0.4297 0.3122 0.0000
vt 0.3914 0.3122 0.0000
vt 0.3914 0.1709 0.0000
vt 0.4297 0.1709 0.0000
vt 0.4083 0.0134 0.0000
vt 0.6478 0.0134 0.0000
vt 0.1099 0.0146 0.0000
vt 0.3494 0.0146 0.0000
vt 0.1193 0.1096 0.0000
vt 0.0920 0.0331 0.0000
vt 0.2296 0.1761 0.0000
vt 0.1716 0.1630 0.0000
vt 0.4699 0.1619 0.0000
vt 0.4178 0.1084 0.0000
vt 0.5281 0.1750 0.0000
vt 0.3904 0.0319 0.0000
vt 0.6697 0.4403 0.0000
vt 0.6799 0.4362 0.0000
vt 0.6799 0.4702 0.0000
vt 0.6697 0.4661 0.0000
vt 0.6557 0.4942 0.0000
vt 0.6516 0.4842 0.0000
vt 0.6217 0.4942 0.0000
vt 0.6259 0.4842 0.0000
vt 0.6077 0.4661 0.0000
vt 0.5977 0.4702 0.0000
vt 0.6077 0.4403 0.0000
vt 0.5977 0.4362 0.0000
vt 0.6217 0.4122 0.0000
vt 0.6259 0.4222 0.0000
vt 0.6557 0.4122 0.0000
vt 0.6516 0.4222 0.0000
vt 0.6598 0.4445 0.0000
vt 0.6598 0.4619 0.0000
vt 0.6474 0.4742 0.0000
vt 0.6300 0.4742 0.0000
vt 0.6178 0.4619 0.0000
vt 0.6178 0.4445 0.0000
vt 0.6300 0.4322 0.0000
vt 0.6474 0.4322 0.0000
vt 0.5875 0.3644 0.0000
vt 0.5958 0.3845 0.0000
vt 0.5471 0.4047 0.0000
vt 0.5875 0.4047 0.0000
vt 0.5673 0.4130 0.0000
vt 0.5387 0.3845 0.0000
vt 0.5471 0.3644 0.0000
vt 0.5673 0.3560 0.0000
vt 0.6208 0.2561 1.0000
vt 0.6208 0.2171 1.0000
vt 0.6513 0.2171 1.0000
vt 0.6513 0.2561 1.0000
vt 0.6208 0.2951 1.0000
vt 0.6513 0.2951 1.0000
vt 0.6208 0.2181 1.0000
vt 0.6208 0.2571 1.0000
vt 0.6513 0.2571 1.0000
vt 0.6513 0.2181 1.0000
vt 0.6208 0.1791 1.0000
vt 0.6513 0.1791 1.0000
vt 0.6208 0.3934 1.0000
vt 0.6208 0.3731 1.0000
vt 0.6513 0.3731 1.0000
vt 0.6513 0.3934 1.0000
vt 0.6208 0.1780 1.0000
vt 0.6513 0.1780 1.0000
vt 0.5619 0.3439 -0.2500
vt 0.5944 0.3263 -0.2500
vt 0.5944 0.2911 -0.2500
vt 0.5619 0.2735 -0.2500
vt 0.5944 0.3263 0.2500
vt 0.5619 0.3439 0.2500
vt 0.5619 0.2735 0.2500
vt 0.5944 0.2911 0.2500
vt 0.5295 0.2911 -0.2500
vt 0.5295 0.3263 -0.2500
vt 0.5295 0.3263 0.2500
vt 0.5295 0.2911 0.2500
vt 0.6384 0.1084 0.0000
vt 0.6657 0.0319 0.0000
vt 0.5862 0.1619 0.0000
vt 0.3399 0.1096 0.0000
vt 0.2878 0.1630 0.0000
vt 0.3687 0.0331 0.0000
# 161 texture coords

g Object001
usemtl GRUNT
s 2
f 1/1/1 2/2/2 3/3/2 4/4/3 
f 5/5/4 6/6/4 7/7/5 8/8/5 
f 9/9/6 10/10/7 11/11/7 12/12/8 
f 7/7/5 13/13/9 14/14/9 8/8/5 
s 1
f 15/15/10 16/16/10 17/17/11 18/18/11 
f 18/18/11 17/17/11 19/19/12 20/20/12 
f 20/21/12 19/22/12 21/23/13 22/24/13 
f 22/25/13 21/26/13 23/27/14 24/28/14 
f 24/28/14 23/27/14 25/29/15 26/30/15 
f 26/30/15 25/29/15 27/31/16 28/32/16 
f 28/33/16 27/34/16 29/35/17 30/36/17 
f 30/36/17 29/35/17 16/16/10 15/15/10 
s 2
f 31/37/18 32/38/19 33/39/19 34/40/18 
f 35/41/20 36/42/20 37/43/21 38/44/21 
s 1
f 34/40/22 33/39/23 37/43/23 36/42/22 
f 39/45/24 32/39/25 38/43/25 40/46/24 
s 2
f 32/38/19 39/47/26 41/45/26 33/39/19 
f 37/43/21 42/46/27 40/48/27 38/44/21 
s 1
f 33/39/23 41/45/28 42/46/28 37/43/23 
f 32/39/25 31/40/29 35/42/29 38/43/25 
s 2
f 17/49/18 16/50/18 43/51/30 
f 15/52/20 18/53/20 24/50/20 
f 19/54/18 17/49/18 43/51/30 
f 18/53/20 20/54/20 24/50/20 
f 21/53/30 19/54/18 43/51/30 
f 20/54/20 22/49/20 24/50/20 
f 23/52/31 21/53/30 43/51/30 
f 25/55/31 23/52/31 43/51/30 
f 27/56/18 25/55/31 43/51/30 
f 26/57/20 28/56/20 24/50/20 
f 29/57/18 27/56/18 43/51/30 
f 28/56/20 30/55/20 24/50/20 
f 16/50/18 29/57/18 43/51/30 
f 30/55/20 15/52/20 24/50/20 
f 2/2/2 9/9/6 12/12/8 3/3/2 
f 5/5/4 44/58/32 45/59/32 6/6/4 
f 10/10/7 46/60/33 11/11/7 
f 13/13/9 47/61/34 14/14/9 
s 1
f 48/62/35 49/63/35 50/64/36 51/65/36 
f 49/63/35 48/62/35 52/66/14 53/67/14 
f 54/68/16 55/69/16 53/67/14 52/66/14 
f 55/70/16 54/71/16 51/65/36 50/64/36 
f 56/72/10 57/73/10 58/74/37 59/75/37 
f 57/73/10 56/72/10 60/76/12 61/77/12 
f 62/78/38 63/79/38 61/77/12 60/76/12 
f 63/80/38 62/81/38 59/75/37 58/74/37 
s 4
f 64/82/39 65/83/40 45/59/41 44/58/42 
f 66/84/43 67/85/44 1/1/45 4/4/46 
f 68/86/47 69/87/48 3/3/49 12/12/50 
f 70/88/51 71/89/52 11/11/53 46/60/54 
f 14/14/55 72/90/56 73/91/57 8/8/58 
f 74/92/59 72/90/56 14/14/55 47/61/60 
f 11/11/53 71/89/52 68/86/47 12/12/50 
f 73/91/57 75/93/61 5/5/62 8/8/58 
f 3/3/49 69/87/48 66/84/43 4/4/46 
f 5/5/62 75/93/61 64/82/39 44/58/42 
s 1
f 76/94/63 77/95/64 78/96/65 79/97/66 
f 79/97/66 78/96/65 80/98/67 81/99/68 
f 81/99/68 80/98/67 82/100/69 83/101/70 
f 84/102/71 83/101/70 82/100/69 85/103/72 
f 86/104/73 84/102/71 85/103/72 87/105/74 
f 86/104/73 87/105/74 88/106/75 89/107/76 
f 89/107/76 88/106/75 90/108/77 91/109/78 
f 91/109/78 90/108/77 77/95/64 76/94/63 
f 92/110/79 76/94/63 79/97/66 93/111/80 
f 93/111/80 79/97/66 81/99/68 94/112/81 
f 95/113/82 94/112/81 81/99/68 83/101/70 
f 96/114/83 95/113/82 83/101/70 84/102/71 
f 97/115/84 96/114/83 84/102/71 86/104/73 
f 98/116/85 97/115/84 86/104/73 89/107/76 
f 98/116/85 89/107/76 91/109/78 99/117/86 
f 99/117/86 91/109/78 76/94/63 92/110/79 
f 92/118/79 93/119/80 96/120/83 
f 93/119/80 94/121/81 96/120/83 
f 94/121/81 95/122/82 96/120/83 
f 97/123/84 98/124/85 96/120/83 
f 98/124/85 99/125/86 96/120/83 
f 99/125/86 92/118/79 96/120/83 
f 100/126/87 101/127/88 102/128/89 103/129/90 
f 104/130/91 100/126/87 103/129/90 105/131/92 
f 106/132/93 104/133/91 105/134/92 107/135/94 
f 108/136/95 106/132/93 107/135/94 109/137/96 
f 110/138/97 108/139/95 109/140/96 111/141/98 
f 101/127/88 110/142/97 111/143/98 102/128/89 
f 102/144/89 111/145/98 109/146/96 107/147/94 
f 110/148/97 101/149/88 106/150/93 108/151/95 
f 102/144/89 107/147/94 105/152/92 103/153/90 
f 106/150/93 101/149/88 100/154/87 104/155/91 
s 4
f 112/156/99 7/7/100 6/6/101 113/157/102 
f 47/61/60 13/13/103 114/158/104 74/92/59 
f 10/10/105 9/9/106 115/159/107 116/160/108 
f 46/60/54 10/10/105 116/160/108 70/88/51 
f 13/13/103 7/7/100 112/156/99 114/158/104 
f 115/159/107 9/9/106 2/2/109 117/161/110 
f 6/6/101 45/59/41 65/83/40 113/157/102 
f 2/2/109 1/1/45 67/85/44 117/161/110 
# 74 polygons - 22 triangles

#
# object Leg_L_GRUNT
#

v  67.3205 -0.0000 53.9991
v  38.1751 -0.0000 53.9991
v  38.1752 -0.0000 -46.0426
v  67.3205 -0.0000 -46.0427
v  65.8358 41.9474 49.4238
v  39.6598 41.9474 49.4238
v  38.2601 9.4330 61.5227
v  67.2354 9.4330 61.5227
v  63.6984 71.2337 3.9782
v  41.7973 71.2337 3.9782
v  41.3058 65.1641 28.3530
v  64.1898 65.1641 28.3530
v  65.8358 41.9474 -41.4674
v  39.6598 41.9474 -41.4674
v  41.3058 65.1641 -20.3965
v  64.1899 65.1641 -20.3965
v  67.2355 9.4330 -53.5662
v  38.2602 9.4330 -53.5663
v  37.6995 41.2337 48.2367
v  36.0121 9.6887 60.1613
v  40.1877 69.8485 3.9782
v  39.6143 63.9819 27.6311
v  65.8813 63.9819 -19.6747
v  67.7962 41.2337 -40.2803
v  65.3080 69.8485 3.9782
v  69.4836 9.6887 -52.2049
v  35.8188 1.2560 53.4152
v  69.6768 1.2560 -45.4588
v  35.8189 1.2560 -45.4588
v  69.6768 1.2560 53.4152
v  69.4834 9.6887 60.1613
v  67.7962 41.2337 48.2367
v  65.8812 63.9819 27.6312
v  39.6143 63.9819 -19.6747
v  37.6995 41.2337 -40.2803
v  36.0121 9.6887 -52.2050
# 36 vertices

vn 0.0000 -0.9015 0.4329
vn -0.0000 -0.9015 -0.4329
vn 0.0000 -0.9015 -0.4329
vn 0.0000 0.5149 0.8572
vn 0.0000 -0.1664 0.9861
vn 0.0000 1.0000 -0.0000
vn 0.0000 0.8547 0.5191
vn 0.0000 0.5149 -0.8572
vn 0.0000 0.8547 -0.5191
vn 0.0000 -0.1664 -0.9861
vn -0.5752 0.4562 0.6790
vn -0.5767 0.4500 0.6818
vn -0.5256 -0.1261 0.8413
vn -0.5242 -0.1185 0.8433
vn -0.6505 0.7595 -0.0000
vn -0.6523 0.7580 -0.0000
vn -0.6329 0.6741 0.3808
vn -0.6332 0.6776 0.3741
vn 0.5752 0.4562 -0.6790
vn 0.6332 0.6775 -0.3741
vn 0.6329 0.6741 -0.3808
vn 0.5767 0.4500 -0.6818
vn 0.6506 0.7595 0.0000
vn 0.6523 0.7580 0.0000
vn 0.5256 -0.1261 -0.8413
vn 0.5242 -0.1185 -0.8433
vn -0.5079 -0.7750 0.3761
vn -0.5067 -0.7751 0.3774
vn 0.5079 -0.7750 -0.3761
vn 0.5067 -0.7751 -0.3774
vn -0.5079 -0.7750 -0.3761
vn -0.5067 -0.7751 -0.3774
vn 0.5079 -0.7750 0.3761
vn 0.5067 -0.7751 0.3774
vn 0.5752 0.4562 0.6790
vn 0.5242 -0.1185 0.8433
vn 0.5256 -0.1261 0.8413
vn 0.5767 0.4500 0.6818
vn 0.6332 0.6776 0.3741
vn 0.6329 0.6741 0.3808
vn -0.6329 0.6741 -0.3808
vn -0.6332 0.6776 -0.3741
vn -0.5752 0.4562 -0.6790
vn -0.5767 0.4500 -0.6818
vn -0.5242 -0.1185 -0.8433
vn -0.5256 -0.1261 -0.8413
# 46 vertex normals

vt 0.0773 0.2382 0.0000
vt 0.0109 0.2382 0.0000
vt 0.0109 0.0102 0.0000
vt 0.0773 0.0101 0.0000
vt 0.0740 0.3448 0.0000
vt 0.0142 0.3448 0.0000
vt 0.0111 0.2658 0.0000
vt 0.0771 0.2658 0.0000
vt 0.0694 0.4737 0.0000
vt 0.0193 0.4737 0.0000
vt 0.0181 0.4164 0.0000
vt 0.0702 0.4164 0.0000
vt 0.0753 0.6024 0.0000
vt 0.0155 0.6024 0.0000
vt 0.0187 0.5310 0.0000
vt 0.0708 0.5309 0.0000
vt 0.0794 0.6816 0.0000
vt 0.0133 0.6816 0.0000
vt 0.0799 0.7090 0.0000
vt 0.0134 0.7090 0.0000
vt 0.6446 0.1124 0.0000
vt 0.6384 0.1084 0.0000
vt 0.6657 0.0319 0.0000
vt 0.6716 0.0304 0.0000
vt 0.5281 0.1816 0.0000
vt 0.5281 0.1750 0.0000
vt 0.5862 0.1619 0.0000
vt 0.5892 0.1677 0.0000
vt 0.3461 0.1136 0.0000
vt 0.2908 0.1689 0.0000
vt 0.2878 0.1630 0.0000
vt 0.3399 0.1096 0.0000
vt 0.2296 0.1828 0.0000
vt 0.2296 0.1761 0.0000
vt 0.3687 0.0331 0.0000
vt 0.3759 0.0315 0.0000
vt 0.6504 0.0072 0.0000
vt 0.6478 0.0134 0.0000
vt 0.3520 0.0084 0.0000
vt 0.3494 0.0146 0.0000
vt 0.4057 0.0072 0.0000
vt 0.4083 0.0134 0.0000
vt 0.1073 0.0084 0.0000
vt 0.1099 0.0146 0.0000
vt 0.1131 0.1136 0.0000
vt 0.0861 0.0316 0.0000
vt 0.0920 0.0331 0.0000
vt 0.1193 0.1096 0.0000
vt 0.1685 0.1689 0.0000
vt 0.1716 0.1630 0.0000
vt 0.4699 0.1619 0.0000
vt 0.4669 0.1677 0.0000
vt 0.4115 0.1124 0.0000
vt 0.4178 0.1084 0.0000
vt 0.3845 0.0304 0.0000
vt 0.3904 0.0319 0.0000
# 56 texture coords

g Leg_L_GRUNT
usemtl GRUNT
s 1
f 118/162/111 119/163/111 120/164/112 121/165/113 
f 122/166/114 123/167/114 124/168/115 125/169/115 
f 126/170/116 127/171/116 128/172/117 129/173/117 
f 130/174/118 131/175/118 132/176/119 133/177/119 
f 133/177/119 132/176/119 127/171/116 126/170/116 
f 129/173/117 128/172/117 123/167/114 122/166/114 
f 134/178/120 135/179/120 131/175/118 130/174/118 
f 125/169/115 124/168/115 119/163/111 118/162/111 
f 135/179/120 134/178/120 121/180/113 120/181/112 
s 4
f 123/182/121 136/183/122 137/184/123 124/185/124 
f 127/186/125 138/187/126 139/188/127 128/189/128 
f 130/190/129 133/191/130 140/192/131 141/193/132 
f 126/194/133 142/195/134 140/192/131 133/191/130 
f 123/182/121 128/189/128 139/188/127 136/183/122 
f 130/190/129 141/193/132 143/196/135 134/197/136 
f 119/198/137 124/185/124 137/184/123 144/199/138 
f 121/200/139 134/197/136 143/196/135 145/201/140 
f 120/202/141 119/198/137 144/199/138 146/203/142 
f 118/204/143 121/200/139 145/201/140 147/205/144 
f 122/206/145 125/207/146 148/208/147 149/209/148 
f 126/194/133 129/210/149 150/211/150 142/195/134 
f 151/212/151 132/213/152 131/214/153 152/215/154 
f 127/186/125 132/213/152 151/212/151 138/187/126 
f 150/211/150 129/210/149 122/206/145 149/209/148 
f 131/214/153 135/216/155 153/217/156 152/215/154 
f 148/208/147 125/207/146 118/204/143 147/205/144 
f 153/217/156 135/216/155 120/202/141 146/203/142 
# 27 polygons

#
# object LegR_GRUNT
#

v  -71.7315 9.9445 58.8000
v  -71.7316 9.9445 -50.8436
v  -72.0330 2.5121 -44.8749
v  -72.0330 2.5121 52.8313
v  -35.7391 40.5201 47.0496
v  -33.7640 9.9445 58.8000
v  -33.7641 9.9445 -50.8436
v  -35.7391 40.5201 -39.0931
v  -67.5727 62.7997 26.9093
v  -67.5727 62.7997 -18.9528
v  -69.7565 40.5201 -39.0932
v  -69.7565 40.5201 47.0496
v  -37.9229 62.7997 -18.9528
v  -37.9229 62.7997 26.9093
v  -34.0352 67.9276 10.3726
v  -34.0352 57.7377 14.5934
v  -24.3528 57.7377 14.5934
v  -24.3528 67.9276 10.3726
v  -34.0352 72.1485 0.1826
v  -24.3528 72.1485 0.1826
v  -34.0352 67.9276 -10.0073
v  -24.3528 67.9276 -10.0074
v  -34.0353 57.7377 -14.2282
v  -24.3528 57.7377 -14.2282
v  -34.0352 47.5477 -10.0074
v  -24.3528 47.5477 -10.0074
v  -34.0352 43.3269 0.1826
v  -24.3528 43.3269 0.1826
v  -34.0352 47.5477 10.3726
v  -24.3528 47.5477 10.3726
v  -32.6396 74.8146 5.3116
v  -32.6396 74.8146 -5.1791
v  -32.6396 67.8387 -7.4475
v  -32.6396 67.8387 7.5800
v  -25.1986 74.8146 5.3116
v  -25.1986 67.8387 7.5800
v  -25.1986 67.8387 -7.4475
v  -25.1986 74.8146 -5.1791
v  -34.4632 81.6341 -7.3288
v  -23.3750 81.6341 -7.3288
v  -34.4632 81.6341 7.4613
v  -23.3750 81.6341 7.4613
v  -33.4626 2.5121 52.8313
v  -33.4626 2.5121 -44.8749
v  -66.9175 68.4634 3.9782
v  -38.5781 68.4634 3.9782
v  -32.1849 66.2979 -0.3949
v  -41.2141 66.2979 -0.3949
v  -41.2141 57.1594 8.7436
v  -32.1849 57.1594 8.7436
v  -41.2141 58.1648 -8.5280
v  -32.1849 58.1648 -8.5280
v  -32.1849 49.0263 0.6105
v  -41.2141 49.0263 0.6105
v  -33.2480 89.3766 6.0576
v  -40.9446 89.3766 6.0576
v  -40.9446 83.1383 -0.1807
v  -33.2480 83.1383 -0.1807
v  -40.9446 95.2195 0.2147
v  -33.2480 95.2195 0.2147
v  -33.2480 88.9811 -6.0236
v  -40.9446 88.9811 -6.0236
v  -37.6994 41.2337 48.2367
v  -36.0120 9.6887 60.1613
v  -69.4834 9.6887 60.1613
v  -67.7961 41.2337 48.2367
v  -40.1877 69.8485 3.9782
v  -39.6143 63.9819 27.6311
v  -65.8812 63.9819 27.6311
v  -65.3079 69.8485 3.9782
v  -37.6994 41.2337 -40.2802
v  -39.6143 63.9819 -19.6746
v  -65.8813 63.9819 -19.6746
v  -67.7961 41.2337 -40.2803
v  -36.0121 9.6887 -52.2049
v  -69.4835 9.6887 -52.2049
v  -35.8188 1.2560 53.4152
v  -69.6767 1.2560 53.4152
v  -69.6767 1.2560 -45.4588
v  -35.8189 1.2560 -45.4587
v  -68.5847 50.8817 -11.0287
v  -69.6300 37.2082 -16.7142
v  -72.6678 37.5275 -12.3097
v  -71.8597 48.0984 -7.9142
v  -68.1518 56.5454 2.6974
v  -71.5250 52.4771 2.6974
v  -68.5847 50.8817 16.4234
v  -71.8597 48.0984 13.3090
v  -72.6678 37.5275 17.7045
v  -69.6300 37.2082 22.1089
v  -73.4760 26.9565 13.3090
v  -70.6753 23.5347 16.4234
v  -71.1083 17.8710 2.6974
v  -73.8107 22.5779 2.6974
v  -70.6753 23.5347 -11.0287
v  -73.4760 26.9565 -7.9142
v  -77.7795 38.0647 -12.3097
v  -76.9714 48.6356 -7.9142
v  -76.6367 53.0142 2.6974
v  -76.9714 48.6356 13.3090
v  -77.7795 38.0647 17.7045
v  -78.5876 27.4937 13.3090
v  -78.9224 23.1151 2.6974
v  -78.5876 27.4937 -7.9142
v  -23.3067 99.7717 6.2739
v  -34.5625 99.7717 6.2739
v  -34.5625 89.1455 12.4090
v  -23.3067 89.1455 12.4090
v  -23.3067 99.7717 -5.9962
v  -34.5625 99.7717 -5.9962
v  -23.3067 89.1455 -12.1312
v  -34.5625 89.1455 -12.1312
v  -23.3067 78.5193 -5.9962
v  -34.5625 78.5193 -5.9962
v  -23.3067 78.5193 6.2739
v  -34.5625 78.5193 6.2739
v  -41.7973 71.2337 3.9782
v  -41.3058 65.1641 28.3530
v  -39.6598 41.9474 49.4238
# 119 vertices

vn -0.9985 0.0543 0.0000
vn -0.9992 0.0405 0.0000
vn -0.9992 0.0405 -0.0000
vn 0.9972 0.0745 -0.0000
vn 0.9985 0.0543 -0.0000
vn -0.9951 0.0992 -0.0000
vn -0.9972 0.0745 -0.0000
vn -0.9972 0.0745 0.0000
vn 0.9951 0.0992 -0.0000
vn 0.0000 0.7071 0.7071
vn 0.0000 0.0000 1.0000
vn 0.0000 1.0000 -0.0000
vn -0.0000 1.0000 -0.0000
vn -0.0000 0.7071 -0.7071
vn -0.0000 0.0000 -1.0000
vn 0.0000 0.0000 -1.0000
vn 0.0000 -0.7071 -0.7071
vn 0.0000 -1.0000 -0.0000
vn 0.0000 -1.0000 0.0000
vn 0.0000 -0.7071 0.7071
vn -0.9916 -0.1296 -0.0000
vn -1.0000 0.0000 -0.0000
vn 0.9916 -0.1296 -0.0000
vn 1.0000 0.0000 -0.0000
vn 0.0000 -0.0191 0.9998
vn 0.0000 0.3092 0.9510
vn 0.0000 -0.0191 -0.9998
vn 0.0000 -0.3006 -0.9537
vn -0.9661 -0.2583 -0.0000
vn 0.9661 -0.2583 -0.0000
vn 0.0000 -0.3006 0.9537
vn 0.0000 0.3092 -0.9510
vn -1.0000 0.0000 0.0000
vn -1.0000 -0.0000 0.0000
vn -1.0000 -0.0000 -0.0000
vn 0.9992 0.0405 -0.0000
vn -0.9934 0.1149 -0.0000
vn 0.9934 0.1149 -0.0000
vn 0.0000 1.0000 0.0000
vn 0.0000 -0.0000 1.0000
vn 0.0000 -0.0000 -1.0000
vn 0.5254 -0.1222 0.8420
vn 0.5766 0.4560 0.6780
vn 0.5731 0.5062 0.6445
vn 0.5239 -0.1089 0.8448
vn -0.5254 -0.1222 0.8420
vn -0.5239 -0.1089 0.8448
vn -0.5749 0.4632 0.6745
vn -0.5766 0.4560 0.6780
vn 0.6515 0.7586 0.0018
vn 0.6503 0.7568 0.0670
vn 0.6334 0.6768 0.3752
vn 0.6320 0.6774 0.3765
vn -0.6328 0.6760 0.3777
vn -0.6331 0.6802 0.3696
vn -0.6514 0.7588 -0.0014
vn -0.6515 0.7586 -0.0018
vn 0.6328 0.6760 -0.3777
vn 0.5766 0.4560 -0.6780
vn 0.5749 0.4632 -0.6745
vn 0.6331 0.6802 -0.3696
vn -0.6320 0.6774 -0.3765
vn -0.6340 0.6802 -0.3679
vn -0.5749 0.4632 -0.6745
vn -0.5766 0.4560 -0.6780
vn 0.5254 -0.1222 -0.8420
vn 0.5239 -0.1089 -0.8448
vn -0.5254 -0.1222 -0.8420
vn -0.5239 -0.1089 -0.8448
vn 0.5082 -0.7732 0.3794
vn 0.5067 -0.7747 0.3782
vn -0.5067 -0.7747 0.3782
vn -0.5082 -0.7732 0.3794
vn -0.5082 -0.7732 -0.3794
vn -0.5067 -0.7747 -0.3782
vn 0.5067 -0.7748 -0.3782
vn 0.5081 -0.7732 -0.3794
vn -0.7846 0.4671 -0.4076
vn -0.8196 0.0609 -0.5697
vn -0.5164 0.0381 -0.8555
vn -0.4576 0.6464 -0.6105
vn -0.7698 0.6383 -0.0000
vn -0.4329 0.9014 -0.0000
vn -0.7846 0.4672 0.4076
vn -0.4576 0.6464 0.6105
vn -0.5164 0.0381 0.8555
vn -0.8196 0.0609 0.5697
vn -0.5736 -0.5588 0.5990
vn -0.8535 -0.3361 0.3983
vn -0.8672 -0.4979 -0.0000
vn -0.5969 -0.8023 -0.0000
vn -0.8535 -0.3361 -0.3983
vn -0.5736 -0.5588 -0.5990
vn -0.6279 0.0534 -0.7765
vn -0.5785 0.6020 -0.5504
vn -0.5580 0.8298 0.0000
vn -0.5785 0.6020 0.5504
vn -0.6279 0.0534 0.7765
vn -0.6772 -0.4919 0.5471
vn -0.6976 -0.7165 0.0000
vn -0.6772 -0.4919 -0.5471
vn 0.6100 0.6862 0.3962
vn -0.6100 0.6862 0.3962
vn -0.6100 -0.0000 0.7924
vn 0.6100 -0.0000 0.7924
vn 0.6100 0.6862 -0.3962
vn -0.6100 0.6862 -0.3962
vn 0.6100 -0.0000 -0.7924
vn -0.6100 -0.0000 -0.7924
vn 0.6100 -0.6862 -0.3962
vn -0.6100 -0.6862 -0.3962
vn 0.6100 -0.6862 0.3962
vn -0.6100 -0.6862 0.3962
vn 0.6410 0.7484 0.1703
vn 0.6332 0.6776 0.3741
vn 0.5687 0.5778 0.5854
# 116 vertex normals

vt 0.0979 0.0346 0.0000
vt 0.3614 0.0346 0.0000
vt 0.3468 0.0208 0.0000
vt 0.1124 0.0208 0.0000
vt 0.6322 0.1044 0.0000
vt 0.6598 0.0334 0.0000
vt 0.3963 0.0334 0.0000
vt 0.4240 0.1044 0.0000
vt 0.1746 0.1572 0.0000
vt 0.2848 0.1572 0.0000
vt 0.3337 0.1056 0.0000
vt 0.1255 0.1056 0.0000
vt 0.4729 0.1560 0.0000
vt 0.5831 0.1560 0.0000
vt 0.6474 0.2468 0.0000
vt 0.6474 0.2182 0.0000
vt 0.6222 0.2182 0.0000
vt 0.6222 0.2468 0.0000
vt 0.6474 0.2743 0.0000
vt 0.6222 0.2743 0.0000
vt 0.6474 0.2456 0.0000
vt 0.6222 0.2456 0.0000
vt 0.6474 0.2173 0.0000
vt 0.6474 0.2460 0.0000
vt 0.6222 0.2460 0.0000
vt 0.6222 0.2173 0.0000
vt 0.6474 0.1887 0.0000
vt 0.6222 0.1887 0.0000
vt 0.6474 0.1600 0.0000
vt 0.6222 0.1600 0.0000
vt 0.6474 0.1895 0.0000
vt 0.6474 0.1609 0.0000
vt 0.6222 0.1609 0.0000
vt 0.6222 0.1895 0.0000
vt 0.9143 0.0415 0.0000
vt 0.8819 0.0427 0.0000
vt 0.8795 0.0630 0.0000
vt 0.9169 0.0612 0.0000
vt 0.9384 0.0433 0.0000
vt 0.9333 0.0628 0.0000
vt 0.9723 0.0679 0.0000
vt 0.9683 0.0492 0.0000
vt 0.9151 0.0215 0.0000
vt 0.9415 0.0233 0.0000
vt 0.8784 0.0225 0.0000
vt 0.9788 0.0332 0.0000
vt 0.5378 0.2455 0.0000
vt 0.5939 0.2223 0.0000
vt 0.5281 0.2223 0.0000
vt 0.5610 0.2552 0.0000
vt 0.5842 0.2455 0.0000
vt 0.5378 0.1991 0.0000
vt 0.5610 0.1894 0.0000
vt 0.5842 0.1991 0.0000
vt 0.6453 0.0196 0.0000
vt 0.4109 0.0196 0.0000
vt 0.2296 0.1695 0.0000
vt 0.5281 0.1683 0.0000
vt 0.3895 0.2443 0.0000
vt 0.4330 0.2443 0.0000
vt 0.4330 0.1892 0.0000
vt 0.3895 0.1892 0.0000
vt 0.4330 0.2718 0.0000
vt 0.3895 0.2718 0.0000
vt 0.3895 0.3269 0.0000
vt 0.4330 0.3269 0.0000
vt 0.4330 0.1616 0.0000
vt 0.3895 0.1616 0.0000
vt 0.3914 0.2415 0.0000
vt 0.4297 0.2415 0.0000
vt 0.4297 0.1944 0.0000
vt 0.3914 0.1944 0.0000
vt 0.4297 0.2650 0.0000
vt 0.3914 0.2650 0.0000
vt 0.3914 0.3122 0.0000
vt 0.4297 0.3122 0.0000
vt 0.4297 0.1709 0.0000
vt 0.3914 0.1709 0.0000
vt 0.6384 0.1084 0.0000
vt 0.6657 0.0319 0.0000
vt 0.0920 0.0331 0.0000
vt 0.1193 0.1096 0.0000
vt 0.5281 0.1750 0.0000
vt 0.5862 0.1619 0.0000
vt 0.1716 0.1630 0.0000
vt 0.2296 0.1761 0.0000
vt 0.4178 0.1084 0.0000
vt 0.4699 0.1619 0.0000
vt 0.2878 0.1630 0.0000
vt 0.3399 0.1096 0.0000
vt 0.3904 0.0319 0.0000
vt 0.3687 0.0331 0.0000
vt 0.6478 0.0134 0.0000
vt 0.1099 0.0146 0.0000
vt 0.3494 0.0146 0.0000
vt 0.4083 0.0134 0.0000
vt 0.6799 0.4702 0.0000
vt 0.6799 0.4362 0.0000
vt 0.6697 0.4403 0.0000
vt 0.6697 0.4661 0.0000
vt 0.6557 0.4942 0.0000
vt 0.6516 0.4842 0.0000
vt 0.6217 0.4942 0.0000
vt 0.6259 0.4842 0.0000
vt 0.6077 0.4661 0.0000
vt 0.5977 0.4702 0.0000
vt 0.6077 0.4403 0.0000
vt 0.5977 0.4362 0.0000
vt 0.6217 0.4122 0.0000
vt 0.6259 0.4222 0.0000
vt 0.6557 0.4122 0.0000
vt 0.6516 0.4222 0.0000
vt 0.6598 0.4445 0.0000
vt 0.6598 0.4619 0.0000
vt 0.6474 0.4742 0.0000
vt 0.6300 0.4742 0.0000
vt 0.6178 0.4619 0.0000
vt 0.6178 0.4445 0.0000
vt 0.6300 0.4322 0.0000
vt 0.6474 0.4322 0.0000
vt 0.5958 0.3845 0.0000
vt 0.5875 0.3644 0.0000
vt 0.5875 0.4047 0.0000
vt 0.5673 0.4130 0.0000
vt 0.5471 0.4047 0.0000
vt 0.5387 0.3845 0.0000
vt 0.5471 0.3644 0.0000
vt 0.5673 0.3560 0.0000
vt 0.6208 0.2561 1.0000
vt 0.6513 0.2561 1.0000
vt 0.6513 0.2171 1.0000
vt 0.6208 0.2171 1.0000
vt 0.6208 0.2951 1.0000
vt 0.6513 0.2951 1.0000
vt 0.6208 0.2174 1.0000
vt 0.6513 0.2174 1.0000
vt 0.6513 0.2564 1.0000
vt 0.6208 0.2564 1.0000
vt 0.6208 0.1784 1.0000
vt 0.6513 0.1784 1.0000
vt 0.6208 0.3934 1.0000
vt 0.6513 0.3934 1.0000
vt 0.6513 0.3731 1.0000
vt 0.6208 0.3731 1.0000
vt 0.6513 0.1780 1.0000
vt 0.6208 0.1780 1.0000
vt 0.5619 0.3439 -0.2500
vt 0.5619 0.2735 -0.2500
vt 0.5944 0.2911 -0.2500
vt 0.5944 0.3263 -0.2500
vt 0.5944 0.3263 0.2500
vt 0.5944 0.2911 0.2500
vt 0.5619 0.2735 0.2500
vt 0.5619 0.3439 0.2500
vt 0.5295 0.3263 -0.2500
vt 0.5295 0.2911 -0.2500
vt 0.5295 0.2911 0.2500
vt 0.5295 0.3263 0.2500
vt 0.5281 0.1816 0.0000
vt 0.5892 0.1677 0.0000
vt 0.6446 0.1124 0.0000
# 161 texture coords

g LegR_GRUNT
usemtl GRUNT
s 2
f 154/218/157 155/219/157 156/220/158 157/221/159 
f 158/222/160 159/223/161 160/224/161 161/225/160 
f 162/226/162 163/227/162 164/228/163 165/229/164 
f 166/230/165 167/231/165 158/222/160 161/225/160 
s 1
f 168/232/166 169/233/167 170/234/167 171/235/166 
f 172/236/168 168/232/166 171/235/166 173/237/169 
f 174/238/170 172/236/168 173/237/169 175/239/170 
f 176/240/171 174/241/170 175/242/170 177/243/172 
f 178/244/173 176/240/171 177/243/172 179/245/173 
f 180/246/174 178/244/173 179/245/173 181/247/175 
f 182/248/176 180/249/174 181/250/175 183/251/176 
f 169/233/167 182/248/176 183/251/176 170/234/167 
s 2
f 184/252/177 185/253/177 186/254/178 187/255/178 
f 188/256/179 189/257/180 190/258/180 191/259/179 
s 1
f 188/256/181 184/252/181 187/255/182 189/257/182 
f 191/256/183 185/252/183 192/260/184 193/261/184 
s 2
f 194/260/185 192/262/185 185/253/177 184/252/177 
f 193/263/186 195/261/186 188/256/179 191/259/179 
s 1
f 195/261/187 194/260/187 184/252/181 188/256/181 
f 190/257/188 186/255/188 185/252/183 191/256/183 
s 2
f 168/264/189 176/265/190 169/266/189 
f 172/267/189 176/265/190 168/264/189 
f 171/268/180 170/265/180 173/267/180 
f 174/268/178 176/265/190 172/267/189 
f 173/267/180 170/265/180 175/264/180 
f 175/264/180 170/265/180 177/266/180 
f 177/266/180 170/265/180 179/269/180 
f 180/270/190 176/265/190 178/271/191 
f 179/269/180 170/265/180 181/270/180 
f 182/269/190 176/265/190 180/270/190 
f 181/270/180 170/265/180 183/271/180 
f 169/266/189 176/265/190 182/269/190 
f 165/229/164 164/228/163 155/219/157 154/218/157 
f 196/272/192 197/273/192 160/224/161 159/223/161 
f 163/227/162 162/226/162 198/274/193 
f 167/231/165 166/230/165 199/275/194 
s 1
f 200/276/195 201/277/195 202/278/196 203/279/196 
f 204/280/172 201/277/195 200/276/195 205/281/172 
f 206/282/174 207/283/174 204/280/172 205/281/172 
f 202/278/196 207/284/174 206/285/174 203/279/196 
f 208/286/167 209/287/167 210/288/175 211/289/175 
f 212/290/168 209/287/167 208/286/167 213/291/168 
f 214/292/197 215/293/197 212/290/168 213/291/168 
f 210/288/175 215/294/197 214/295/197 211/289/175 
s 4
f 159/223/198 158/222/199 216/296/200 217/297/201 
f 154/218/202 218/298/203 219/299/204 165/229/205 
f 199/275/206 220/300/207 221/301/208 167/231/209 
f 162/226/210 222/302/211 223/303/212 198/274/213 
f 166/230/214 161/225/215 224/304/216 225/305/217 
f 163/227/218 226/306/219 227/307/220 164/228/221 
f 166/230/214 225/305/217 220/300/207 199/275/206 
f 198/274/213 223/303/212 226/306/219 163/227/218 
f 167/231/209 221/301/208 216/296/200 158/222/199 
f 162/226/210 165/229/205 219/299/204 222/302/211 
f 160/224/222 228/308/223 224/304/216 161/225/215 
f 155/219/224 164/228/221 227/307/220 229/309/225 
f 159/223/198 217/297/201 230/310/226 196/272/227 
f 154/218/202 157/221/228 231/311/229 218/298/203 
f 155/219/224 229/309/225 232/312/230 156/220/231 
f 160/224/222 197/273/232 233/313/233 228/308/223 
s 1
f 234/314/234 235/315/235 236/316/236 237/317/237 
f 238/318/238 234/314/234 237/317/237 239/319/239 
f 240/320/240 238/318/238 239/319/239 241/321/241 
f 242/322/242 243/323/243 240/320/240 241/321/241 
f 244/324/244 245/325/245 243/323/243 242/322/242 
f 246/326/246 245/325/245 244/324/244 247/327/247 
f 248/328/248 246/326/246 247/327/247 249/329/249 
f 235/315/235 248/328/248 249/329/249 236/316/236 
f 237/317/237 236/316/236 250/330/250 251/331/251 
f 239/319/239 237/317/237 251/331/251 252/332/252 
f 253/333/253 241/321/241 239/319/239 252/332/252 
f 254/334/254 242/322/242 241/321/241 253/333/253 
f 255/335/255 244/324/244 242/322/242 254/334/254 
f 256/336/256 247/327/247 244/324/244 255/335/255 
f 249/329/249 247/327/247 256/336/256 257/337/257 
f 236/316/236 249/329/249 257/337/257 250/330/250 
f 251/338/251 250/339/250 252/340/252 
f 252/340/252 250/339/250 253/341/253 
f 253/341/253 250/339/250 254/342/254 
f 254/342/254 250/339/250 255/343/255 
f 255/343/255 250/339/250 256/344/256 
f 256/344/256 250/339/250 257/345/257 
f 258/346/258 259/347/259 260/348/260 261/349/261 
f 262/350/262 263/351/263 259/347/259 258/346/258 
f 264/352/264 265/353/265 263/354/263 262/355/262 
f 266/356/266 267/357/267 265/353/265 264/352/264 
f 268/358/268 269/359/269 267/360/267 266/361/266 
f 261/349/261 260/348/260 269/362/269 268/363/268 
f 260/364/260 265/365/265 267/366/267 269/367/269 
f 268/368/268 266/369/266 264/370/264 261/371/261 
f 260/364/260 259/372/259 263/373/263 265/365/265 
f 264/370/264 262/374/262 258/375/258 261/371/261 
s 4
f 197/273/232 196/272/227 230/310/226 233/313/233 
f 270/376/270 271/377/271 221/301/208 220/300/207 
f 221/301/208 271/377/271 272/378/272 216/296/200 
f 157/221/228 156/220/231 232/312/230 231/311/229 
# 76 polygons - 20 triangles

#
# object chain1
#

v  -38.1752 -0.0000 -46.0426
v  -38.1751 -0.0000 53.9991
v  -67.3205 -0.0000 53.9991
v  -67.3205 -0.0000 -46.0427
v  -38.2601 9.4330 61.5227
v  -39.6598 41.9474 49.4238
v  -65.8358 41.9474 49.4238
v  -67.2354 9.4330 61.5227
v  -41.3058 65.1641 28.3530
v  -41.7973 71.2337 3.9782
v  -63.6984 71.2337 3.9782
v  -64.1898 65.1641 28.3530
v  -41.3058 65.1641 -20.3965
v  -39.6598 41.9474 -41.4674
v  -65.8358 41.9474 -41.4674
v  -64.1899 65.1641 -20.3965
v  -38.2602 9.4330 -53.5663
v  -67.2355 9.4330 -53.5662
v  -35.8189 1.2560 -45.4588
v  -35.8188 1.2560 53.4152
v  -69.6768 1.2560 53.4152
v  -69.6768 1.2560 -45.4588
v  -36.0121 9.6887 60.1613
v  -37.6995 41.2337 48.2367
v  -39.6143 63.9819 -19.6747
v  -37.6995 41.2337 -40.2803
v  -40.1877 69.8485 3.9782
v  -36.0121 9.6887 -52.2050
v  -69.4834 9.6887 60.1613
v  -67.7962 41.2337 48.2367
v  -65.3080 69.8485 3.9782
v  -65.8812 63.9819 27.6311
v  -65.8813 63.9819 -19.6747
v  -67.7962 41.2337 -40.2803
v  -69.4836 9.6887 -52.2049
# 35 vertices

vn 0.0000 -0.9015 -0.4329
vn 0.0000 -0.9015 0.4329
vn -0.0000 -0.9015 -0.4329
vn 0.0000 -0.1664 0.9861
vn 0.0000 0.5149 0.8572
vn 0.0000 0.8547 0.5191
vn 0.0000 1.0000 -0.0000
vn 0.0000 0.8547 -0.5191
vn -0.0000 0.5149 -0.8572
vn 0.0000 0.5149 -0.8572
vn -0.0000 -0.1664 -0.9861
vn 0.5079 -0.7750 -0.3761
vn 0.5067 -0.7751 -0.3774
vn 0.5067 -0.7751 0.3774
vn 0.5079 -0.7750 0.3761
vn -0.5079 -0.7750 0.3761
vn -0.5067 -0.7751 0.3774
vn -0.5067 -0.7751 -0.3774
vn -0.5079 -0.7750 -0.3761
vn 0.5674 0.3171 0.7599
vn 0.5242 -0.1185 0.8433
vn 0.5256 -0.1261 0.8413
vn 0.5730 0.3164 0.7560
vn 0.5752 0.4562 -0.6790
vn 0.6341 0.6776 -0.3726
vn 0.6321 0.6754 -0.3797
vn 0.5767 0.4500 -0.6818
vn 0.6425 0.7466 -0.1729
vn 0.6410 0.7477 -0.1731
vn 0.5256 -0.1261 -0.8413
vn 0.5242 -0.1185 -0.8433
vn -0.5256 -0.1261 0.8413
vn -0.5242 -0.1185 0.8433
vn -0.5752 0.4562 0.6790
vn -0.5767 0.4500 0.6818
vn -0.6341 0.6776 0.3726
vn -0.6514 0.7587 0.0014
vn -0.6516 0.7586 0.0017
vn -0.6321 0.6754 0.3797
vn -0.6329 0.6741 -0.3808
vn -0.6332 0.6775 -0.3741
vn -0.5752 0.4562 -0.6790
vn -0.5767 0.4500 -0.6818
vn -0.5242 -0.1185 -0.8433
vn -0.5256 -0.1261 -0.8413
# 45 vertex normals

vt 0.0109 0.0102 0.0000
vt 0.0109 0.2382 0.0000
vt 0.0773 0.2382 0.0000
vt 0.0773 0.0101 0.0000
vt 0.0111 0.2658 0.0000
vt 0.0142 0.3448 0.0000
vt 0.0740 0.3448 0.0000
vt 0.0771 0.2658 0.0000
vt 0.0181 0.4164 0.0000
vt 0.0193 0.4737 0.0000
vt 0.0694 0.4737 0.0000
vt 0.0702 0.4164 0.0000
vt 0.0187 0.5310 0.0000
vt 0.0155 0.6024 0.0000
vt 0.0753 0.6024 0.0000
vt 0.0708 0.5309 0.0000
vt 0.0133 0.6816 0.0000
vt 0.0794 0.6816 0.0000
vt 0.0799 0.7090 0.0000
vt 0.0134 0.7090 0.0000
vt 0.4057 0.0072 0.0000
vt 0.4083 0.0134 0.0000
vt 0.6478 0.0134 0.0000
vt 0.6504 0.0072 0.0000
vt 0.1073 0.0084 0.0000
vt 0.1099 0.0146 0.0000
vt 0.3494 0.0146 0.0000
vt 0.3520 0.0084 0.0000
vt 0.6446 0.1124 0.0000
vt 0.6716 0.0304 0.0000
vt 0.6657 0.0319 0.0000
vt 0.6384 0.1084 0.0000
vt 0.4115 0.1124 0.0000
vt 0.4669 0.1677 0.0000
vt 0.4699 0.1619 0.0000
vt 0.4178 0.1084 0.0000
vt 0.5281 0.1816 0.0000
vt 0.5281 0.1750 0.0000
vt 0.3904 0.0319 0.0000
vt 0.3845 0.0304 0.0000
vt 0.0920 0.0331 0.0000
vt 0.0861 0.0316 0.0000
vt 0.1131 0.1136 0.0000
vt 0.1193 0.1096 0.0000
vt 0.1685 0.1689 0.0000
vt 0.2296 0.1828 0.0000
vt 0.2296 0.1761 0.0000
vt 0.1716 0.1630 0.0000
vt 0.2878 0.1630 0.0000
vt 0.2908 0.1689 0.0000
vt 0.3461 0.1136 0.0000
vt 0.3399 0.1096 0.0000
vt 0.3759 0.0315 0.0000
vt 0.3687 0.0331 0.0000
# 54 texture coords

g chain1
usemtl GRUNT
s 1
f 273/379/273 274/380/274 275/381/274 276/382/275 
f 277/383/276 278/384/277 279/385/277 280/386/276 
f 281/387/278 282/388/279 283/389/279 284/390/278 
f 285/391/280 286/392/281 287/393/282 288/394/280 
f 282/388/279 285/391/280 288/394/280 283/389/279 
f 278/384/277 281/387/278 284/390/278 279/385/277 
f 286/392/281 289/395/283 290/396/283 287/393/282 
f 274/380/274 277/383/276 280/386/276 275/381/274 
f 276/397/275 290/396/283 289/395/283 273/398/273 
s 4
f 273/399/284 291/400/285 292/401/286 274/402/287 
f 275/403/288 293/404/289 294/405/290 276/406/291 
f 278/407/292 277/408/293 295/409/294 296/410/295 
f 286/411/296 285/412/297 297/413/298 298/414/299 
f 285/412/297 282/415/300 299/416/301 297/413/298 
f 300/417/302 289/418/303 286/411/296 298/414/299 
f 295/409/294 277/408/293 274/402/287 292/401/286 
f 273/399/284 289/418/303 300/417/302 291/400/285 
f 301/419/304 280/420/305 279/421/306 302/422/307 
f 284/423/308 283/424/309 303/425/310 304/426/311 
f 305/427/312 288/428/313 287/429/314 306/430/315 
f 283/424/309 288/428/313 305/427/312 303/425/310 
f 279/421/306 284/423/308 304/426/311 302/422/307 
f 287/429/314 290/431/316 307/432/317 306/430/315 
f 275/403/288 280/420/305 301/419/304 293/404/289 
f 307/432/317 290/431/316 276/406/291 294/405/290 
# 25 polygons

#
# object Body_GRUNT
#

v  32.4843 128.1090 -30.7634
v  25.0434 197.5212 -23.8009
v  25.0434 197.5212 19.6185
v  35.6054 131.7637 45.3492
v  -0.0914 128.1090 -30.7634
v  -0.0914 197.5212 -23.8009
v  35.6054 115.6034 39.7206
v  32.4843 111.9486 -32.4422
v  -0.0914 131.7637 45.3492
v  -0.0914 115.6034 39.7206
v  24.9557 108.7222 23.8794
v  24.9557 108.7222 -23.1959
v  -0.0914 108.7222 23.8794
v  24.9557 102.3502 -23.1724
v  24.9557 102.3502 23.8794
v  -0.0914 102.3502 23.8794
v  6.1650 94.8518 -21.5737
v  -0.0914 102.3502 -23.1724
v  16.1341 75.9527 -11.3918
v  6.1650 75.9527 -11.3918
v  6.1650 87.2544 -19.9986
v  18.7559 87.2544 -19.9986
v  15.5796 71.7630 0.3653
v  6.1650 71.7630 0.3653
v  16.1341 75.9527 12.1223
v  6.1650 75.9527 12.1223
v  18.7559 87.2544 20.7291
v  6.1650 87.2544 20.7291
v  6.1650 94.8518 22.3042
v  -18.9387 87.2544 20.7291
v  -25.1385 102.3502 23.8794
v  -25.1385 102.3502 -23.1724
v  -18.9387 87.2544 -19.9986
v  -16.3169 75.9527 12.1223
v  -16.3169 75.9527 -11.3918
v  -15.7624 71.7630 0.3653
v  -6.3478 94.8518 -21.5737
v  -6.3478 87.2544 -19.9986
v  -6.3478 75.9527 -11.3918
v  -6.3478 71.7630 0.3653
v  -6.3478 75.9527 12.1223
v  -6.3478 87.2544 20.7291
v  -6.3478 94.8517 22.3042
v  6.1650 85.3000 -22.5966
v  -6.3478 85.3000 -22.5966
v  6.1650 72.4994 -12.8917
v  -6.3478 72.4995 -12.8919
v  6.1650 67.7468 0.3654
v  -6.3478 67.7468 0.3652
v  6.1650 72.4995 13.6223
v  -6.3478 72.4995 13.6223
v  6.1650 85.3000 23.3272
v  -6.3478 85.3000 23.3272
v  -0.0914 197.5212 19.6185
v  -0.0914 111.9487 -32.4422
v  -0.0914 108.7222 -23.1959
v  93.4762 149.4073 11.7375
v  96.4064 149.4073 -21.7687
v  93.4729 170.3336 -20.0958
v  90.8375 169.9454 11.7375
v  60.4401 149.4073 11.7375
v  34.1466 149.4074 11.7375
v  34.1466 149.4074 -54.8399
v  60.4401 149.4073 -54.8399
v  34.1466 176.4374 -47.6975
v  60.4401 176.4374 -47.6975
v  34.1466 196.5710 -25.2160
v  60.4401 196.5524 -25.2160
v  34.1466 183.4639 23.4889
v  34.1466 172.7160 31.3171
v  39.7010 183.4639 23.4889
v  34.1466 200.6752 -4.3093
v  60.4401 200.6752 -4.3093
v  93.4762 149.4073 -50.1266
v  90.6560 170.5473 -47.5352
v  70.6667 195.2771 -23.5541
v  81.5178 184.6551 -37.5487
v  80.4434 185.0093 11.7375
v  69.0159 198.4854 -4.3169
v  60.4401 191.4973 11.7375
v  67.9330 191.4844 11.7375
v  34.1466 191.4973 11.7375
v  60.4401 158.3537 36.6123
v  34.1466 158.3537 36.6123
v  60.4401 183.4639 23.4889
v  60.4401 172.7160 31.3171
v  54.5219 191.4973 11.7375
v  54.0335 183.4639 23.4889
v  82.9766 187.3397 -13.5138
v  39.7391 191.4974 11.7375
v  39.7010 189.5158 22.5129
v  54.0335 189.5158 22.5129
v  54.0335 195.4352 18.5912
v  39.7010 195.4352 18.5912
v  39.7010 196.7994 11.7375
v  54.0335 196.7994 11.7375
v  30.7614 220.6150 11.7375
v  30.7614 191.4844 11.7375
v  70.1299 191.4844 11.7375
v  70.1299 220.6150 11.7375
v  30.7614 191.4844 -47.0608
v  70.1299 191.4845 -47.0608
v  70.1299 220.6150 -47.0608
v  30.7614 220.6150 -47.0607
v  29.3945 190.2470 -106.5676
v  29.3945 190.2470 -48.1506
v  29.3945 221.8524 -48.1506
v  29.3945 221.8524 -106.5676
v  71.4968 221.8524 -48.1506
v  71.4968 221.8524 -106.5676
v  71.4968 190.2470 -48.1506
v  71.4968 190.2470 -106.5676
v  87.5920 172.3080 -3.9235
v  94.5304 175.5434 -6.9454
v  90.9844 183.1479 -10.4209
v  83.1430 181.8490 -8.2841
v  89.5156 186.2978 -18.8115
v  81.3001 185.8010 -18.8115
v  90.9844 183.1479 -27.2020
v  83.1430 181.8490 -29.3388
v  94.5304 175.5434 -30.6775
v  87.5920 172.3080 -33.6994
v  98.0764 167.9390 -27.2020
v  92.0411 162.7670 -29.3388
v  99.5452 164.7891 -18.8115
v  93.8839 158.8150 -18.8115
v  98.0764 167.9390 -10.4209
v  92.0411 162.7670 -8.2841
v  94.5304 175.5434 -18.8115
v  62.7971 87.5000 78.0603
v  41.4519 141.8092 78.0603
v  41.4519 76.8196 78.0603
v  62.7971 76.8196 78.0603
v  39.7972 75.1649 -11.3573
v  64.4518 75.1649 -11.3573
v  64.4518 75.1649 42.3507
v  39.7972 75.1649 42.3507
v  41.5523 141.7088 46.3979
v  77.9154 141.7088 46.3979
v  77.9154 141.7088 43.1781
v  41.5523 141.7088 43.1781
v  78.0158 102.7188 78.0603
v  78.0158 141.8092 78.0603
v  39.7972 143.4639 -41.4334
v  79.6705 143.4639 -41.4334
v  79.6705 102.0334 -41.4334
v  39.7972 102.0334 -41.4334
v  89.3281 135.6188 -11.3573
v  89.3281 135.6188 42.3507
v  89.3281 102.0334 42.3507
v  89.3281 102.0334 -11.3573
v  41.5523 76.9200 43.1781
v  41.5523 76.9200 46.3979
v  64.4518 86.8146 -11.3573
v  64.4518 86.8146 42.3507
v  79.6705 143.4639 -11.3573
v  77.3774 102.9832 43.1781
v  77.3773 102.9831 46.3979
v  79.6705 102.0334 -11.3573
v  62.1586 87.7645 43.1781
v  62.1587 87.7646 46.3979
v  79.6705 102.0334 42.3507
v  79.6705 143.4639 42.3507
v  64.4518 86.8146 -25.5192
v  92.3786 118.7171 3.2817
v  89.3281 118.7171 -0.3887
v  89.3281 130.1555 4.3492
v  92.3786 127.5601 6.9446
v  89.3281 134.8934 15.7876
v  92.3786 131.2230 15.7876
v  89.3281 130.1555 27.2259
v  92.3786 127.5601 24.6306
v  89.3281 118.7171 31.9639
v  92.3786 118.7171 28.2935
v  89.3281 107.2787 27.2259
v  92.3786 109.8741 24.6306
v  89.3281 102.5408 15.7876
v  92.3786 106.2112 15.7876
v  89.3281 107.2787 4.3492
v  92.3786 109.8741 6.9446
v  97.5116 118.7171 3.2817
v  97.5116 127.5601 6.9446
v  97.5116 131.2230 15.7876
v  97.5116 127.5601 24.6306
v  97.5116 118.7171 28.2935
v  97.5116 109.8741 24.6306
v  97.5116 106.2112 15.7876
v  97.5116 109.8741 6.9446
v  97.5116 118.7171 15.7876
v  69.4401 153.0183 -16.3652
v  69.4401 139.8226 -16.3652
v  58.5174 139.8226 -25.8246
v  58.5174 153.0183 -25.8246
v  47.5947 139.8226 -16.3652
v  47.5947 153.0183 -16.3652
v  58.5174 139.8226 -6.9059
v  58.5174 153.0183 -6.9059
v  62.6967 76.9200 43.1781
v  62.6967 76.9200 46.3979
v  39.7972 143.4639 42.3507
v  39.7972 143.4639 47.2253
v  39.7972 143.4639 75.5782
v  79.6705 143.4639 75.5782
v  79.6705 143.4639 47.2253
v  39.7972 75.1649 47.2253
v  39.7972 75.1649 75.5782
v  79.6705 102.0334 75.5782
v  79.6705 102.0334 47.2253
v  64.4518 86.8146 75.5782
v  64.4518 86.8146 47.2253
v  64.4518 75.1649 47.2253
v  64.4518 75.1649 75.5782
v  27.1763 172.2299 12.4234
v  36.2055 172.2299 12.4234
v  36.2055 182.8955 0.1078
v  27.1763 182.8955 0.1078
v  36.2055 172.2299 -12.2079
v  27.1763 172.2299 -12.2079
v  36.2055 161.5642 0.1078
v  27.1763 161.5642 0.1078
v  -32.6671 128.1090 -30.7634
v  -35.7882 131.7637 45.3492
v  -25.2262 197.5212 19.6185
v  -25.2262 197.5212 -23.8009
v  -32.6671 111.9487 -32.4422
v  -35.7882 115.6034 39.7206
v  -25.1385 108.7222 -23.1959
v  -25.1385 108.7222 23.8794
v  -93.4762 149.4073 11.7375
v  -90.8375 169.9454 11.7375
v  -93.4729 170.3336 -20.0958
v  -96.4064 149.4073 -21.7687
v  -34.1466 149.4074 -54.8399
v  -34.1466 149.4074 11.7375
v  -60.4401 149.4073 11.7375
v  -60.4401 149.4073 -54.8399
v  -34.1466 176.4374 -47.6975
v  -60.4401 176.4374 -47.6975
v  -34.1466 196.5710 -25.2160
v  -60.4401 196.5524 -25.2160
v  -34.1466 183.4639 23.4889
v  -39.7010 183.4639 23.4889
v  -34.1466 172.7160 31.3171
v  -34.1466 200.6752 -4.3093
v  -60.4401 200.6752 -4.3093
v  -93.4762 149.4073 -50.1266
v  -90.6560 170.5473 -47.5352
v  -70.6667 195.2771 -23.5541
v  -81.5178 184.6551 -37.5487
v  -60.4401 191.4973 11.7375
v  -67.9330 191.4844 11.7375
v  -80.4434 185.0093 11.7375
v  -69.0159 198.4854 -4.3169
v  -34.1466 191.4973 11.7375
v  -60.4401 158.3537 36.6123
v  -34.1466 158.3537 36.6123
v  -60.4401 183.4639 23.4889
v  -60.4401 172.7160 31.3171
v  -54.5219 191.4973 11.7375
v  -54.0335 183.4639 23.4889
v  -82.9766 187.3397 -13.5138
v  -39.7391 191.4974 11.7375
v  -54.0335 195.4352 18.5912
v  -54.0335 189.5158 22.5129
v  -39.7010 189.5158 22.5129
v  -39.7010 195.4352 18.5912
v  -54.0335 196.7994 11.7375
v  -39.7010 196.7994 11.7375
v  -70.1299 191.4844 11.7375
v  -30.7614 191.4844 11.7375
v  -30.7614 220.6150 11.7375
v  -70.1299 220.6150 11.7375
v  -70.1299 191.4845 -47.0608
v  -30.7614 191.4844 -47.0608
v  -70.1299 220.6150 -47.0608
v  -30.7614 220.6150 -47.0607
v  -29.3945 221.8524 -48.1506
v  -29.3945 190.2470 -48.1506
v  -29.3945 190.2470 -106.5676
v  -29.3945 221.8524 -106.5676
v  -71.4968 221.8524 -48.1506
v  -71.4968 221.8524 -106.5676
v  -71.4968 190.2470 -48.1506
v  -71.4968 190.2470 -106.5676
v  -90.9844 183.1479 -10.4209
v  -94.5304 175.5434 -6.9454
v  -87.5920 172.3080 -3.9235
v  -83.1430 181.8490 -8.2841
v  -89.5156 186.2978 -18.8115
v  -81.3001 185.8010 -18.8115
v  -90.9844 183.1479 -27.2020
v  -83.1430 181.8490 -29.3388
v  -94.5304 175.5434 -30.6775
v  -87.5920 172.3080 -33.6994
v  -98.0764 167.9390 -27.2020
v  -92.0411 162.7670 -29.3388
v  -99.5452 164.7891 -18.8116
v  -93.8839 158.8150 -18.8115
v  -98.0764 167.9390 -10.4209
v  -92.0411 162.7670 -8.2841
v  -94.5304 175.5434 -18.8115
v  -62.7971 87.5000 78.0603
v  -62.7971 76.8196 78.0603
v  -41.4519 76.8196 78.0603
v  -41.4519 141.8092 78.0603
v  -64.4518 75.1649 42.3507
v  -64.4518 75.1649 -11.3573
v  -39.7972 75.1649 -11.3573
v  -39.7972 75.1649 42.3507
v  -77.9154 141.7088 46.3979
v  -41.5523 141.7088 46.3979
v  -41.5523 141.7088 43.1781
v  -77.9154 141.7088 43.1781
v  -78.0158 102.7188 78.0602
v  -78.0158 141.8092 78.0602
v  -79.6705 102.0334 -41.4334
v  -79.6705 143.4639 -41.4334
v  -39.7972 143.4639 -41.4334
v  -39.7972 102.0334 -41.4334
v  -89.3281 102.0334 42.3506
v  -89.3281 135.6188 42.3506
v  -89.3281 135.6188 -11.3573
v  -89.3281 102.0334 -11.3573
v  -41.5523 76.9200 43.1781
v  -41.5523 76.9200 46.3979
v  -64.4518 86.8146 42.3507
v  -64.4518 86.8146 -11.3573
v  -79.6705 143.4639 -11.3573
v  -77.3774 102.9832 43.1781
v  -77.3773 102.9831 46.3979
v  -79.6705 102.0334 -11.3573
v  -62.1586 87.7645 43.1781
v  -62.1587 87.7646 46.3979
v  -79.6705 102.0334 42.3507
v  -79.6705 143.4639 42.3507
v  -64.4518 86.8146 -25.5192
v  -89.3281 130.1555 4.3492
v  -89.3281 118.7171 -0.3887
v  -92.3786 118.7171 3.2817
v  -92.3786 127.5601 6.9446
v  -89.3281 134.8934 15.7875
v  -92.3786 131.2230 15.7875
v  -89.3281 130.1555 27.2258
v  -92.3786 127.5601 24.6305
v  -89.3281 118.7171 31.9638
v  -92.3786 118.7171 28.2934
v  -89.3281 107.2787 27.2258
v  -92.3786 109.8741 24.6305
v  -89.3281 102.5408 15.7875
v  -92.3786 106.2112 15.7875
v  -89.3281 107.2787 4.3492
v  -92.3786 109.8741 6.9446
v  -97.5116 118.7171 3.2816
v  -97.5116 127.5601 6.9445
v  -97.5116 131.2230 15.7875
v  -97.5116 127.5601 24.6305
v  -97.5116 118.7171 28.2934
v  -97.5116 109.8741 24.6305
v  -97.5116 106.2112 15.7875
v  -97.5116 109.8741 6.9445
v  -97.5116 118.7171 15.7875
v  -58.5174 139.8226 -25.8246
v  -69.4401 139.8226 -16.3652
v  -69.4401 153.0183 -16.3652
v  -58.5174 153.0183 -25.8246
v  -47.5947 139.8226 -16.3652
v  -47.5947 153.0183 -16.3652
v  -58.5174 139.8226 -6.9059
v  -58.5174 153.0183 -6.9059
v  -62.6967 76.9200 43.1781
v  -62.6967 76.9200 46.3979
v  -39.7972 143.4639 42.3507
v  -79.6705 143.4639 75.5781
v  -39.7972 143.4639 75.5782
v  -39.7972 143.4639 47.2253
v  -79.6705 143.4639 47.2253
v  -39.7972 75.1649 75.5782
v  -39.7972 75.1649 47.2253
v  -79.6705 102.0334 75.5781
v  -79.6705 102.0334 47.2253
v  -64.4518 86.8146 75.5782
v  -64.4518 86.8146 47.2253
v  -64.4518 75.1649 75.5782
v  -64.4518 75.1649 47.2253
v  -36.2055 182.8955 0.1078
v  -36.2055 172.2299 12.4234
v  -27.1763 172.2299 12.4234
v  -27.1763 182.8955 0.1078
v  -36.2055 172.2299 -12.2079
v  -27.1763 172.2299 -12.2079
v  -36.2055 161.5642 0.1078
v  -27.1763 161.5642 0.1078
v  71.2287 134.6633 78.0603
v  67.1982 130.6328 87.1514
v  70.3821 122.9460 87.1514
v  76.0821 122.9460 78.0603
v  59.5115 139.5167 78.0603
v  59.5115 133.8167 87.1514
v  47.7942 134.6633 78.0603
v  51.8247 130.6328 87.1514
v  42.9408 122.9460 78.0603
v  48.6409 122.9460 87.1514
v  47.7942 111.2288 78.0603
v  51.8247 115.2593 87.1514
v  59.5115 106.3754 78.0603
v  59.5115 112.0754 87.1514
v  71.2287 111.2288 78.0603
v  67.1982 115.2593 87.1514
v  59.5115 122.9460 87.1514
v  -47.7943 134.6633 78.0603
v  -51.8248 130.6328 87.1514
v  -48.6409 122.9460 87.1514
v  -42.9409 122.9460 78.0603
v  -59.5115 139.5167 78.0603
v  -59.5115 133.8167 87.1514
v  -71.2288 134.6633 78.0603
v  -67.1983 130.6328 87.1514
v  -76.0822 122.9460 78.0603
v  -70.3821 122.9460 87.1514
v  -71.2288 111.2288 78.0603
v  -67.1983 115.2593 87.1514
v  -59.5115 106.3754 78.0603
v  -59.5115 112.0754 87.1514
v  -47.7943 111.2288 78.0603
v  -51.8248 115.2593 87.1514
v  -59.5115 122.9460 87.1514
# 426 vertices

vn 0.9913 0.1279 -0.0298
vn 0.0000 0.0998 -0.9950
vn 0.9990 0.0096 -0.0425
vn -0.0000 -0.3289 0.9444
vn 0.4820 -0.8761 0.0142
vn -0.0000 -0.9172 0.3984
vn 1.0000 0.0000 0.0000
vn -0.0000 -0.0000 1.0000
vn 0.0000 -0.1033 0.9946
vn -0.0002 -0.0886 0.9961
vn -0.0002 -0.1296 -0.9916
vn 0.0000 -0.1067 -0.9943
vn -0.0004 -0.0914 -0.9958
vn 0.0000 -0.7951 -0.6065
vn 0.0000 -0.8074 -0.5901
vn 0.0000 -0.4147 -0.9099
vn -0.0006 -0.3804 -0.9248
vn -0.0000 -1.0000 0.0000
vn -0.0000 -0.7951 0.6065
vn -0.0000 -0.8074 0.5901
vn -0.0003 -0.3799 0.9250
vn -0.0000 -0.4147 0.9099
vn -0.0001 -0.1281 0.9918
vn 0.9448 -0.3276 0.0000
vn 0.9770 -0.2133 0.0000
vn 0.9914 -0.1312 0.0000
vn -0.9448 -0.3276 -0.0000
vn -0.9250 -0.3799 -0.0000
vn -0.9770 -0.2133 -0.0000
vn -0.9914 -0.1312 -0.0000
vn 0.0006 -0.3804 -0.9248
vn 0.0004 -0.0914 -0.9958
vn 0.0002 -0.1296 -0.9916
vn 0.0003 -0.3799 0.9250
vn 0.0002 -0.0886 0.9961
vn 0.0001 -0.1281 0.9918
vn 0.0000 -0.2677 -0.9635
vn 0.0000 -0.8062 -0.5917
vn 0.0000 -1.0000 0.0000
vn -0.0000 -1.0000 -0.0000
vn -0.0000 -0.8062 0.5917
vn -0.0000 -0.2677 0.9635
vn 0.9250 -0.3799 0.0000
vn -1.0000 0.0000 -0.0000
vn -0.0000 1.0000 0.0000
vn -0.0000 0.3644 0.9312
vn 0.0000 0.1033 -0.9946
vn -0.0000 -0.9442 -0.3295
vn 0.0000 -0.0037 -1.0000
vn 0.9881 0.1287 0.0845
vn 0.9902 0.1392 -0.0119
vn 0.9387 0.3443 -0.0158
vn 0.9340 0.3431 0.0994
vn 0.0438 0.2333 -0.9714
vn 0.0000 0.2555 -0.9668
vn 0.0000 0.5222 -0.8528
vn 0.0366 0.5266 -0.8493
vn 0.0005 0.8952 -0.4457
vn 0.0904 0.8883 -0.4503
vn -0.0000 0.7176 0.6965
vn -0.0000 0.4718 0.8817
vn -0.0000 0.6765 0.7364
vn 0.0002 0.9868 0.1619
vn 0.1125 0.9799 0.1647
vn 0.0000 -1.0000 -0.0000
vn 0.6464 0.4139 -0.6410
vn 0.7101 0.1782 -0.6811
vn 0.3442 0.8816 -0.3230
vn 0.4561 0.7634 -0.4573
vn 0.4035 0.9030 0.1473
vn 0.0219 0.8673 0.4973
vn 0.2224 0.8881 0.4023
vn -0.0000 -0.9410 0.3384
vn -0.0000 0.3459 0.9383
vn 0.0000 0.8543 0.5198
vn -0.0000 0.6752 0.7377
vn 0.7437 0.6685 -0.0037
vn -0.0000 0.8475 0.5308
vn -0.0000 0.8545 0.5194
vn 0.6972 0.6876 0.2026
vn -0.0000 0.3640 0.9314
vn -0.0000 0.8303 0.5573
vn 0.9989 0.0075 0.0467
vn 0.9978 0.0569 0.0345
vn 0.9987 0.0154 0.0481
vn 0.0000 0.0000 -1.0000
vn -1.0000 -0.0045 -0.0027
vn -1.0000 -0.0040 -0.0032
vn -1.0000 -0.0072 -0.0014
vn -0.0000 0.1592 0.9872
vn -0.0000 0.9808 0.1952
vn -0.6234 -0.0000 0.7819
vn 0.0000 0.6609 0.7504
vn 0.6234 -0.0000 0.7819
vn 0.0000 -0.6609 0.7505
vn 0.9956 0.0917 0.0183
vn 0.9978 0.0518 0.0414
vn -1.0000 -0.0006 -0.0036
vn -1.0000 -0.0012 -0.0038
vn 0.3328 0.1552 0.9302
vn 0.6933 0.3233 0.6441
vn 0.5008 0.7361 0.4554
vn 0.0548 0.7513 0.6577
vn 0.4211 0.9070 -0.0000
vn -0.0604 0.9982 -0.0000
vn 0.5008 0.7360 -0.4554
vn 0.0548 0.7513 -0.6577
vn 0.6933 0.3233 -0.6441
vn 0.3328 0.1552 -0.9302
vn 0.8858 -0.0895 -0.4554
vn 0.6107 -0.4409 -0.6577
vn 0.9655 -0.2605 0.0000
vn 0.7259 -0.6878 0.0000
vn 0.8858 -0.0895 0.4554
vn 0.6107 -0.4409 0.6577
vn 0.9063 0.4226 0.0000
vn 0.5219 -0.8530 0.0000
vn 0.9999 -0.0139 0.0000
vn 0.7071 -0.7071 0.0000
vn 0.6305 0.7762 0.0000
vn 0.0000 -0.7227 -0.6911
vn -0.0111 -0.7437 -0.6684
vn -0.0162 -0.7351 -0.6778
vn -0.0180 -0.7566 -0.6537
vn 0.0000 -0.7723 -0.6353
vn 0.4705 -0.0000 -0.8824
vn 0.7691 -0.0000 -0.6392
vn 0.7691 0.4520 -0.4520
vn 0.4705 0.6239 -0.6239
vn 0.7691 0.6392 0.0000
vn 0.4705 0.8824 0.0000
vn 0.7691 0.4520 0.4520
vn 0.4705 0.6239 0.6239
vn 0.7691 -0.0000 0.6392
vn 0.4705 -0.0000 0.8824
vn 0.7691 -0.4520 0.4520
vn 0.4705 -0.6239 0.6239
vn 0.7691 -0.6392 0.0000
vn 0.4705 -0.8824 0.0000
vn 0.7691 -0.4520 -0.4520
vn 0.4705 -0.6239 -0.6239
vn 0.6303 0.0000 -0.7764
vn 0.6303 0.5490 -0.5490
vn 0.6303 0.7764 0.0000
vn 0.6303 0.5490 0.5490
vn 0.6303 0.0000 0.7764
vn 0.6303 -0.5490 0.5490
vn 0.6303 -0.7764 0.0000
vn 0.6303 -0.5490 -0.5490
vn 0.6547 0.0000 -0.7559
vn -0.6547 0.0000 -0.7559
vn -0.6547 -0.0000 0.7559
vn 0.6547 -0.0000 0.7559
vn 0.9988 0.0496 -0.0000
vn 0.3788 -0.0025 0.9255
vn -0.0000 0.4264 0.9045
vn -0.4264 -0.0000 0.9045
vn -0.0000 -0.4264 0.9045
vn 0.3836 0.0092 0.9235
vn 0.2400 -0.2400 0.9406
vn 0.0000 0.4264 -0.9045
vn 0.3788 -0.0025 -0.9255
vn 0.2400 -0.2400 -0.9406
vn 0.3836 0.0092 -0.9234
vn 0.0000 -0.4264 -0.9045
vn -0.4264 0.0000 -0.9045
vn -0.0000 -0.8321 0.5547
vn 0.8321 -0.0000 0.5547
vn 0.5884 -0.5884 0.5547
vn -0.0000 0.8321 0.5547
vn -0.8321 -0.0000 0.5547
vn -0.0000 0.0000 1.0000
vn -0.9913 0.1279 -0.0298
vn -0.9990 0.0096 -0.0425
vn -0.4820 -0.8761 0.0142
vn 0.0000 -0.9442 -0.3295
vn -0.9881 0.1287 0.0845
vn -0.9340 0.3431 0.0994
vn -0.9387 0.3443 -0.0158
vn -0.9902 0.1392 -0.0119
vn -0.0000 0.2555 -0.9668
vn -0.0438 0.2333 -0.9714
vn -0.0366 0.5266 -0.8493
vn -0.0005 0.8952 -0.4457
vn -0.0904 0.8883 -0.4503
vn 0.0000 0.7176 0.6965
vn -0.0002 0.9868 0.1619
vn -0.1125 0.9799 0.1647
vn -0.6464 0.4139 -0.6410
vn -0.7101 0.1782 -0.6811
vn -0.3442 0.8816 -0.3230
vn -0.4561 0.7634 -0.4573
vn -0.4035 0.9030 0.1473
vn -0.2224 0.8881 0.4023
vn -0.0219 0.8673 0.4973
vn 0.0000 -0.9410 0.3384
vn -0.0000 0.8543 0.5198
vn -0.7437 0.6685 -0.0037
vn 0.0000 0.8545 0.5194
vn 0.0000 0.8475 0.5308
vn -0.6972 0.6876 0.2026
vn -0.9989 0.0075 0.0467
vn -0.9987 0.0154 0.0481
vn -0.9978 0.0569 0.0345
vn 1.0000 -0.0045 -0.0027
vn 1.0000 -0.0072 -0.0014
vn 1.0000 -0.0040 -0.0032
vn -0.0000 0.6609 0.7504
vn -0.0000 -0.6609 0.7505
vn -0.9978 0.0518 0.0414
vn -0.9956 0.0917 0.0183
vn 1.0000 -0.0012 -0.0038
vn 1.0000 -0.0006 -0.0036
vn -0.5008 0.7361 0.4554
vn -0.6933 0.3233 0.6441
vn -0.3328 0.1552 0.9302
vn -0.0548 0.7513 0.6577
vn -0.4211 0.9070 -0.0000
vn 0.0604 0.9982 -0.0000
vn -0.5008 0.7360 -0.4554
vn -0.0548 0.7513 -0.6577
vn -0.6933 0.3233 -0.6441
vn -0.3328 0.1552 -0.9302
vn -0.8858 -0.0895 -0.4554
vn -0.6107 -0.4409 -0.6577
vn -0.9655 -0.2605 0.0000
vn -0.7259 -0.6878 -0.0000
vn -0.8858 -0.0895 0.4554
vn -0.6107 -0.4409 0.6577
vn -0.9063 0.4226 -0.0000
vn -0.5219 -0.8530 -0.0000
vn -0.9999 -0.0139 0.0000
vn -0.7071 -0.7071 0.0000
vn -0.6305 0.7762 -0.0000
vn -0.7071 -0.7071 -0.0000
vn 0.0162 -0.7351 -0.6778
vn 0.0111 -0.7437 -0.6684
vn 0.0180 -0.7566 -0.6537
vn -0.7691 0.4520 -0.4520
vn -0.7691 -0.0000 -0.6392
vn -0.4705 -0.0000 -0.8824
vn -0.4705 0.6239 -0.6239
vn -0.7691 0.6392 -0.0000
vn -0.4705 0.8824 -0.0000
vn -0.7691 0.4520 0.4520
vn -0.4705 0.6239 0.6239
vn -0.7691 -0.0000 0.6392
vn -0.4705 -0.0000 0.8824
vn -0.7691 -0.4520 0.4520
vn -0.4705 -0.6239 0.6239
vn -0.7691 -0.6392 0.0000
vn -0.4705 -0.8824 0.0000
vn -0.7691 -0.4520 -0.4520
vn -0.4705 -0.6239 -0.6239
vn -0.6303 0.0000 -0.7764
vn -0.6303 0.5490 -0.5490
vn -0.6303 0.7764 -0.0000
vn -0.6303 0.5490 0.5490
vn -0.6303 0.0000 0.7764
vn -0.6303 -0.5490 0.5490
vn -0.6303 -0.7764 -0.0000
vn -0.6303 -0.5490 -0.5490
vn -0.9988 0.0496 -0.0000
vn -0.3788 -0.0025 0.9255
vn 0.4264 -0.0000 0.9045
vn -0.3836 0.0092 0.9235
vn -0.2400 -0.2400 0.9406
vn -0.3788 -0.0025 -0.9255
vn -0.2400 -0.2400 -0.9406
vn -0.3836 0.0092 -0.9234
vn 0.4264 0.0000 -0.9045
vn -0.5884 -0.5884 0.5547
vn 0.5991 0.5991 0.5312
vn 0.4001 0.4001 0.8245
vn 0.5659 -0.0000 0.8245
vn 0.8472 -0.0000 0.5312
vn -0.0000 0.8472 0.5312
vn -0.0000 0.5659 0.8245
vn -0.5991 0.5991 0.5312
vn -0.4001 0.4001 0.8245
vn -0.8472 -0.0000 0.5312
vn -0.5659 -0.0000 0.8245
vn -0.5991 -0.5991 0.5312
vn -0.4001 -0.4001 0.8245
vn 0.0000 -0.8472 0.5312
vn 0.0000 -0.5659 0.8245
vn 0.5991 -0.5991 0.5312
vn 0.4001 -0.4001 0.8245
# 288 vertex normals

vt 0.3595 0.2857 0.0000
vt 0.3445 0.4285 0.0000
vt 0.2455 0.4292 0.0000
vt 0.1859 0.2942 0.0000
vt 0.7816 0.8588 0.0000
vt 0.7817 0.6592 0.0000
vt 0.8619 0.6592 0.0000
vt 0.8857 0.8588 0.0000
vt 0.1987 0.2524 0.0000
vt 0.3633 0.2423 0.0000
vt 0.8682 0.6417 0.0000
vt 0.9821 0.6417 0.0000
vt 0.9821 0.5795 0.0000
vt 0.8682 0.5795 0.0000
vt 0.2347 0.2169 0.0000
vt 0.3420 0.2166 0.0000
vt 0.9821 0.5167 0.0000
vt 0.9022 0.5167 0.0000
vt 0.3420 0.2022 0.0000
vt 0.2347 0.2024 0.0000
vt 0.9821 0.4964 0.0000
vt 0.9022 0.4964 0.0000
vt 0.5988 0.5305 0.0000
vt 0.5846 0.5130 0.0000
vt 0.6417 0.5130 0.0000
vt 0.6215 0.5806 0.0000
vt 0.5988 0.5806 0.0000
vt 0.5988 0.5482 0.0000
vt 0.6275 0.5482 0.0000
vt 0.6203 0.6091 0.0000
vt 0.5988 0.6090 0.0000
vt 0.6215 0.6375 0.0000
vt 0.5988 0.6375 0.0000
vt 0.6275 0.6699 0.0000
vt 0.5988 0.6699 0.0000
vt 0.6416 0.7051 0.0000
vt 0.5988 0.6876 0.0000
vt 0.1305 0.2913 0.0000
vt 0.1041 0.2717 0.0000
vt 0.1041 0.2181 0.0000
vt 0.1305 0.1985 0.0000
vt 0.0944 0.2449 0.0000
vt 0.1677 0.2985 0.0000
vt 0.1677 0.1912 0.0000
vt 0.5416 0.5482 0.0000
vt 0.5275 0.5130 0.0000
vt 0.5703 0.5305 0.0000
vt 0.5703 0.5482 0.0000
vt 0.5476 0.5806 0.0000
vt 0.5703 0.5806 0.0000
vt 0.5488 0.6090 0.0000
vt 0.5703 0.6090 0.0000
vt 0.5703 0.6375 0.0000
vt 0.5476 0.6375 0.0000
vt 0.5703 0.6699 0.0000
vt 0.5416 0.6699 0.0000
vt 0.5274 0.7050 0.0000
vt 0.5703 0.6876 0.0000
vt 0.5845 0.7051 0.0000
vt 0.4906 0.5459 0.0000
vt 0.4626 0.5459 0.0000
vt 0.4617 0.5247 0.0000
vt 0.4915 0.5247 0.0000
vt 0.4908 0.5810 0.0000
vt 0.4623 0.5810 0.0000
vt 0.4907 0.6114 0.0000
vt 0.4624 0.6114 0.0000
vt 0.4908 0.6417 0.0000
vt 0.4623 0.6417 0.0000
vt 0.4906 0.6769 0.0000
vt 0.4626 0.6769 0.0000
vt 0.4617 0.6981 0.0000
vt 0.4915 0.6980 0.0000
vt 0.4969 0.5437 0.0000
vt 0.4988 0.5792 0.0000
vt 0.4992 0.6114 0.0000
vt 0.4988 0.6436 0.0000
vt 0.4969 0.6791 0.0000
vt 0.4562 0.6791 0.0000
vt 0.4543 0.6436 0.0000
vt 0.4539 0.6114 0.0000
vt 0.4543 0.5792 0.0000
vt 0.4562 0.5437 0.0000
vt 0.9821 0.8457 0.0000
vt 0.9019 0.8457 0.0000
vt 0.9019 0.9843 0.0000
vt 0.9821 0.9843 0.0000
vt 0.8856 0.9186 0.0000
vt 0.7817 0.9186 0.0000
vt 0.8616 0.9576 0.0000
vt 0.7817 0.9576 0.0000
vt 0.8616 0.9780 0.0000
vt 0.7817 0.9780 0.0000
vt 0.1995 0.5028 0.0000
vt 0.2796 0.4842 0.0000
vt 0.2844 0.5321 0.0000
vt 0.2152 0.5446 0.0000
vt 0.5148 0.4375 0.0000
vt 0.5148 0.4974 0.0000
vt 0.3630 0.4974 0.0000
vt 0.3630 0.4375 0.0000
vt 0.4344 0.6342 0.0000
vt 0.4360 0.6953 0.0000
vt 0.3702 0.6953 0.0000
vt 0.3697 0.6357 0.0000
vt 0.2994 0.6953 0.0000
vt 0.3004 0.6353 0.0000
vt 0.1749 0.6953 0.0000
vt 0.1442 0.6953 0.0000
vt 0.1750 0.6832 0.0000
vt 0.2503 0.6953 0.0000
vt 0.2517 0.6361 0.0000
vt 0.3736 0.3622 0.0000
vt 0.4383 0.3554 0.0000
vt 0.3805 0.5666 0.0000
vt 0.4290 0.5578 0.0000
vt 0.2983 0.6107 0.0000
vt 0.3402 0.5872 0.0000
vt 0.2193 0.5827 0.0000
vt 0.1358 0.5498 0.0000
vt 0.2541 0.6183 0.0000
vt 0.2077 0.6291 0.0000
vt 0.2152 0.6128 0.0000
vt 0.1454 0.3245 0.0000
vt 0.1699 0.3424 0.0000
vt 0.1882 0.3692 0.0000
vt 0.0922 0.3692 0.0000
vt 0.5751 0.4374 0.0000
vt 0.5750 0.4974 0.0000
vt 0.1752 0.6365 0.0000
vt 0.1226 0.5730 0.0000
vt 0.1089 0.6953 0.0000
vt 0.1116 0.6335 0.0000
vt 0.1457 0.6370 0.0000
vt 0.2087 0.6451 0.0000
vt 0.1763 0.6508 0.0000
vt 0.1126 0.3125 0.0000
vt 0.1998 0.4535 0.0000
vt 0.1540 0.5047 0.0000
vt 0.2091 0.4058 0.0000
vt 0.2748 0.5785 0.0000
vt 0.3288 0.5718 0.0000
vt 0.0922 0.5210 0.0000
vt 0.3466 0.5281 0.0000
vt 0.3460 0.4778 0.0000
vt 0.2077 0.6953 0.0000
vt 0.2077 0.6817 0.0000
vt 0.5147 0.3620 0.0000
vt 0.7270 0.9180 0.0000
vt 0.7602 0.9180 0.0000
vt 0.7594 0.9334 0.0000
vt 0.7277 0.9334 0.0000
vt 0.7630 0.9049 0.0000
vt 0.7756 0.9396 0.0000
vt 0.7265 0.9617 0.0000
vt 0.7253 0.9490 0.0000
vt 0.7618 0.9490 0.0000
vt 0.7620 0.9617 0.0000
vt 0.7115 0.9396 0.0000
vt 0.7241 0.9049 0.0000
vt 0.7340 0.3570 0.0000
vt 0.7340 0.4244 0.0000
vt 0.8269 0.4244 0.0000
vt 0.8269 0.3570 0.0000
vt 0.9887 0.3570 0.0000
vt 0.9887 0.2222 0.0000
vt 0.8960 0.2222 0.0000
vt 0.8960 0.3570 0.0000
vt 0.8269 0.2222 0.0000
vt 0.7340 0.2222 0.0000
vt 0.6649 0.2222 0.0000
vt 0.6649 0.3570 0.0000
vt 0.6649 0.0854 0.0000
vt 0.6649 0.2184 0.0000
vt 0.7340 0.2184 0.0000
vt 0.7340 0.0854 0.0000
vt 0.8269 0.2184 0.0000
vt 0.8269 0.0854 0.0000
vt 0.8960 0.2184 0.0000
vt 0.8960 0.0854 0.0000
vt 0.9887 0.2184 0.0000
vt 0.9887 0.0854 0.0000
vt 0.8269 0.0146 0.0000
vt 0.7340 0.0146 0.0000
vt 0.8900 0.4452 0.0000
vt 0.9067 0.4383 0.0000
vt 0.9209 0.4525 0.0000
vt 0.9139 0.4692 0.0000
vt 0.9409 0.4525 0.0000
vt 0.9478 0.4692 0.0000
vt 0.9551 0.4383 0.0000
vt 0.9718 0.4452 0.0000
vt 0.9551 0.4183 0.0000
vt 0.9718 0.4114 0.0000
vt 0.9409 0.4041 0.0000
vt 0.9478 0.3874 0.0000
vt 0.9209 0.4041 0.0000
vt 0.9139 0.3874 0.0000
vt 0.9067 0.4183 0.0000
vt 0.8900 0.4114 0.0000
vt 0.9309 0.4283 0.0000
vt 0.0542 0.8494 0.0000
vt 0.1028 0.7256 0.0000
vt 0.1029 0.8737 0.0000
vt 0.0542 0.8738 0.0000
vt 0.2009 0.9840 0.0000
vt 0.2009 0.9279 0.0000
vt 0.3230 0.9279 0.0000
vt 0.3230 0.9840 0.0000
vt 0.5044 0.9694 0.0000
vt 0.5044 0.8929 0.0000
vt 0.5116 0.8929 0.0000
vt 0.5116 0.9693 0.0000
vt 0.0195 0.8147 0.0000
vt 0.0195 0.7256 0.0000
vt 0.0148 0.9840 0.0000
vt 0.0148 0.8920 0.0000
vt 0.1090 0.8920 0.0000
vt 0.1090 0.9840 0.0000
vt 0.8162 0.6102 0.0000
vt 0.6924 0.6102 0.0000
vt 0.6924 0.5353 0.0000
vt 0.8162 0.5353 0.0000
vt 0.1861 0.7258 0.0000
vt 0.1861 0.8735 0.0000
vt 0.1787 0.8735 0.0000
vt 0.1787 0.7258 0.0000
vt 0.8162 0.4705 0.0000
vt 0.6924 0.4705 0.0000
vt 0.6924 0.4436 0.0000
vt 0.8162 0.4436 0.0000
vt 0.6225 0.8930 0.0000
vt 0.7038 0.8930 0.0000
vt 0.7038 0.9782 0.0000
vt 0.5116 0.7961 0.0000
vt 0.5044 0.7961 0.0000
vt 0.6225 0.8043 0.0000
vt 0.7038 0.8042 0.0000
vt 0.5116 0.7480 0.0000
vt 0.5044 0.7480 0.0000
vt 0.6726 0.5351 0.0000
vt 0.6726 0.6278 0.0000
vt 0.8360 0.5351 0.0000
vt 0.8360 0.6278 0.0000
vt 0.8162 0.6389 0.0000
vt 0.6924 0.6389 0.0000
vt 0.6225 0.7545 0.0000
vt 0.6807 0.7545 0.0000
vt 0.6225 0.7269 0.0000
vt 0.1592 0.9279 0.0000
vt 0.5999 0.8199 0.0000
vt 0.6100 0.8157 0.0000
vt 0.6100 0.8498 0.0000
vt 0.5999 0.8456 0.0000
vt 0.5859 0.8738 0.0000
vt 0.5817 0.8637 0.0000
vt 0.5518 0.8738 0.0000
vt 0.5560 0.8637 0.0000
vt 0.5278 0.8498 0.0000
vt 0.5379 0.8456 0.0000
vt 0.5278 0.8157 0.0000
vt 0.5379 0.8199 0.0000
vt 0.5518 0.7917 0.0000
vt 0.5560 0.8017 0.0000
vt 0.5859 0.7917 0.0000
vt 0.5817 0.8017 0.0000
vt 0.5899 0.8240 0.0000
vt 0.5899 0.8414 0.0000
vt 0.5776 0.8537 0.0000
vt 0.5602 0.8537 0.0000
vt 0.5479 0.8414 0.0000
vt 0.5479 0.8240 0.0000
vt 0.5602 0.8118 0.0000
vt 0.5776 0.8118 0.0000
vt 0.5870 0.7305 0.0000
vt 0.5953 0.7506 0.0000
vt 0.5668 0.7506 0.0000
vt 0.5870 0.7708 0.0000
vt 0.5668 0.7791 0.0000
vt 0.5466 0.7708 0.0000
vt 0.5383 0.7506 0.0000
vt 0.5466 0.7305 0.0000
vt 0.5668 0.7221 0.0000
vt 0.4288 0.2461 0.0000
vt 0.3921 0.2461 0.0000
vt 0.3921 0.2081 0.0000
vt 0.4288 0.1929 0.0000
vt 0.3921 0.1549 0.0000
vt 0.4288 0.1549 0.0000
vt 0.4288 0.3372 0.0000
vt 0.3921 0.3372 0.0000
vt 0.3921 0.2992 0.0000
vt 0.4288 0.2840 0.0000
vt 0.3274 0.9798 0.0000
vt 0.3274 0.9317 0.0000
vt 0.3347 0.9318 0.0000
vt 0.3347 0.9799 0.0000
vt 0.5044 0.7229 0.0000
vt 0.5116 0.7229 0.0000
vt 0.5164 0.9782 0.0000
vt 0.5164 0.8929 0.0000
vt 0.1905 0.7217 0.0000
vt 0.3815 0.8162 0.0000
vt 0.3130 0.8775 0.0000
vt 0.1905 0.8775 0.0000
vt 0.4996 0.9782 0.0000
vt 0.4358 0.9782 0.0000
vt 0.4358 0.8930 0.0000
vt 0.4995 0.8929 0.0000
vt 0.1743 0.8776 0.0000
vt 0.1097 0.8776 0.0000
vt 0.1096 0.7218 0.0000
vt 0.1743 0.7218 0.0000
vt 0.4358 0.7962 0.0000
vt 0.4995 0.7961 0.0000
vt 0.4358 0.7480 0.0000
vt 0.4995 0.7480 0.0000
vt 0.3391 0.9279 0.0000
vt 0.4036 0.9279 0.0000
vt 0.4036 0.9840 0.0000
vt 0.3391 0.9840 0.0000
vt 0.4358 0.7229 0.0000
vt 0.4995 0.7229 0.0000
vt 0.5163 0.7961 0.0000
vt 0.5163 0.7480 0.0000
vt 0.5163 0.7229 0.0000
vt 0.3816 0.7218 0.0000
vt 0.4103 0.9815 0.0000
vt 0.4103 0.9330 0.0000
vt 0.4295 0.7488 0.0000
vt 0.4295 0.7229 0.0000
vt 0.4289 0.7962 0.0000
vt 0.4289 0.7460 0.0000
vt 0.4289 0.8930 0.0000
vt 0.4289 0.9704 0.0000
vt 0.4346 0.2884 0.0000
vt 0.3903 0.2884 0.0000
vt 0.3903 0.2458 0.0000
vt 0.4346 0.2458 0.0000
vt 0.3903 0.2032 0.0000
vt 0.4346 0.2032 0.0000
vt 0.3903 0.1606 0.0000
vt 0.4346 0.1606 0.0000
vt 0.4346 0.3310 0.0000
vt 0.3903 0.3310 0.0000
vt 0.1994 0.6218 0.0000
vt 0.1627 0.4993 0.0000
vt 0.3921 0.2005 0.0000
vt 0.4288 0.2005 0.0000
vt 0.3921 0.2916 0.0000
vt 0.4288 0.2916 0.0000
vt 0.7372 0.7450 0.0000
vt 0.7264 0.7189 0.0000
vt 0.7368 0.7085 0.0000
vt 0.7628 0.7193 0.0000
vt 0.7010 0.7450 0.0000
vt 0.7118 0.7189 0.0000
vt 0.6753 0.7193 0.0000
vt 0.7014 0.7085 0.0000
vt 0.6753 0.6831 0.0000
vt 0.7014 0.6939 0.0000
vt 0.7010 0.6575 0.0000
vt 0.7118 0.6835 0.0000
vt 0.7372 0.6575 0.0000
vt 0.7264 0.6835 0.0000
vt 0.7628 0.6831 0.0000
vt 0.7368 0.6939 0.0000
vt 0.7582 0.7803 0.0000
vt 0.7656 0.7983 0.0000
vt 0.7403 0.7983 0.0000
vt 0.7582 0.8163 0.0000
vt 0.7403 0.8237 0.0000
vt 0.7222 0.8163 0.0000
vt 0.7148 0.7983 0.0000
vt 0.7222 0.7803 0.0000
vt 0.7403 0.7729 0.0000
# 376 texture coords

g Body_GRUNT
usemtl GRUNT
s off
f 308/433/318 309/434/318 310/435/318 311/436/318 
f 312/437/319 313/438/319 309/439/319 308/440/319 
f 308/433/320 311/436/320 314/441/320 315/442/320 
f 311/443/321 316/444/321 317/445/321 314/446/321 
f 315/442/322 314/441/322 318/447/322 319/448/322 
f 317/445/323 320/449/323 318/450/323 314/446/323 
f 321/451/324 319/448/324 318/447/324 322/452/324 
s 1
f 318/450/325 320/449/325 323/453/326 322/454/327 
f 324/455/328 325/456/329 321/457/330 
f 326/458/331 327/459/332 328/460/333 329/461/334 
f 330/462/335 331/463/335 327/459/332 326/458/331 
f 330/462/335 332/464/336 333/465/337 331/463/335 
f 332/464/336 334/466/338 335/467/339 333/465/337 
f 334/466/338 322/468/327 336/469/340 335/467/339 
s 2
f 334/470/341 332/471/342 326/472/342 329/473/341 
f 326/472/342 332/471/342 330/474/343 
f 337/470/344 338/475/345 339/476/345 340/473/344 
f 341/471/346 337/470/344 340/473/344 342/472/346 
f 343/474/347 341/471/346 342/472/346 
s 1
f 340/477/348 339/478/349 344/479/350 345/480/333 
f 342/481/331 340/477/348 345/480/333 346/482/332 
f 343/483/335 342/481/331 346/482/332 347/484/335 
f 348/485/337 341/486/336 343/483/335 347/484/335 
f 349/487/339 337/488/351 341/486/336 348/485/337 
f 338/489/352 350/490/353 323/491/326 
f 351/492/354 352/493/354 344/494/350 324/495/328 
f 351/492/354 353/496/355 354/497/355 352/493/354 
f 353/496/355 355/498/356 356/499/357 354/497/355 
f 355/498/356 357/500/358 358/501/358 356/499/357 
f 357/500/358 359/502/359 360/503/359 358/501/358 
f 323/491/326 350/490/353 336/469/340 
f 329/461/334 328/460/333 324/455/328 321/457/330 
f 322/468/327 323/491/326 336/469/340 
s 2
f 322/475/360 334/470/341 329/473/341 321/476/360 
s 1
f 339/478/349 325/456/329 344/479/350 
f 337/488/351 349/487/339 350/490/353 338/489/352 
f 344/479/350 325/456/329 324/455/328 
f 350/504/353 360/503/359 359/502/359 336/505/340 
s 2
f 324/495/324 328/506/324 351/492/324 
f 327/507/324 353/496/324 351/492/324 328/506/324 
f 331/508/324 355/498/324 353/496/324 327/507/324 
f 331/508/324 333/509/324 357/500/324 355/498/324 
f 333/509/324 335/510/324 359/502/324 357/500/324 
f 335/510/324 336/505/324 359/502/324 
f 350/504/361 349/511/361 360/503/361 
f 348/512/361 358/501/361 360/503/361 349/511/361 
f 347/513/361 356/499/361 358/501/361 348/512/361 
f 347/513/361 346/514/361 354/497/361 356/499/361 
f 346/514/361 345/515/361 352/493/361 354/497/361 
f 345/515/361 344/494/361 352/493/361 
s 1
f 361/516/362 310/517/362 309/518/362 313/519/362 
s off
f 316/444/363 311/443/363 310/517/363 361/516/363 
f 312/437/364 308/440/364 315/520/364 362/521/364 
f 362/521/365 315/520/365 319/522/365 363/523/365 
s 1
f 363/523/366 319/522/366 321/524/330 325/525/329 
f 364/526/367 365/527/368 366/528/369 367/529/370 
s 2
f 368/530/357 369/531/357 370/532/357 371/533/357 
s 1
f 371/534/371 370/535/372 372/536/373 373/537/374 
f 373/537/374 372/536/373 374/538/375 375/539/376 
f 376/540/377 377/541/378 378/542/379 
f 375/539/376 374/538/375 379/543/380 380/544/381 
s 2
f 371/533/357 381/545/382 365/546/382 
s 1
f 382/547/383 381/548/384 371/534/371 373/537/374 
f 383/549/385 384/550/386 373/537/374 375/539/376 
s 8
f 367/529/325 385/551/325 368/552/325 
s 1
f 386/553/387 380/544/381 387/554/388 388/555/389 
f 384/550/386 382/547/383 373/537/374 
s 4
f 377/556/361 376/557/361 389/558/361 369/559/361 
s off
f 369/531/390 368/530/390 390/560/390 391/561/390 
s 4
f 387/554/324 392/562/324 368/563/324 
s 1
f 377/541/378 391/564/391 390/565/391 393/566/378 
f 394/567/392 395/568/393 392/562/377 387/554/388 
s 8
f 367/529/325 368/552/325 364/526/325 
s 4
f 369/559/361 391/569/361 377/556/361 
f 374/570/361 372/571/361 389/558/361 379/572/361 
s 1
f 383/549/385 386/553/387 396/573/394 384/574/386 
s 4
f 369/559/361 389/558/361 372/571/361 370/575/361 
s 1
f 384/574/386 396/573/394 366/528/369 382/576/383 
f 365/527/368 381/577/384 382/576/383 366/528/369 
f 379/543/380 389/578/395 397/579/396 
s 2
f 365/546/382 364/580/382 368/530/357 371/533/357 
s 1
f 383/549/385 375/539/376 380/544/381 386/553/387 
f 386/553/387 388/555/389 385/551/397 396/573/394 
f 396/573/394 385/551/397 367/529/370 366/528/369 
f 393/566/378 392/562/377 395/568/393 
f 397/579/396 389/578/395 376/540/377 378/542/379 
f 394/567/392 387/554/388 380/544/381 
f 377/541/378 393/566/378 395/568/393 378/542/379 
s 8
f 398/581/398 399/582/398 400/583/399 401/584/399 
s 1
f 379/543/380 397/579/396 394/567/392 380/544/381 
s 2
f 395/585/400 394/586/401 399/582/402 
s 4
f 397/587/403 402/588/403 403/589/403 394/590/403 
s 2
f 397/591/404 401/584/405 402/588/406 
s 8
f 398/581/398 378/592/407 395/585/407 399/582/398 
f 400/583/399 403/589/408 402/588/408 401/584/399 
s off
f 404/593/325 405/594/325 406/595/325 407/596/325 
f 405/597/382 408/598/382 409/599/382 406/600/382 
f 406/600/324 409/599/324 410/601/324 407/596/324 
f 407/596/362 410/601/362 411/602/362 404/593/362 
f 404/593/361 411/602/361 408/603/361 405/604/361 
f 412/605/361 413/606/361 414/607/361 415/608/361 
f 415/608/362 414/607/362 416/609/362 417/610/362 
f 417/610/324 416/609/324 418/611/324 419/612/324 
f 419/612/382 418/611/382 413/613/382 412/614/382 
f 413/606/409 408/603/409 411/602/409 414/607/409 
f 414/607/410 411/602/410 410/601/410 416/609/410 
f 416/609/411 410/601/411 409/599/411 418/611/411 
f 418/611/412 409/599/412 408/598/412 413/613/412 
f 419/615/403 412/616/403 415/608/403 417/610/403 
s 2
f 394/586/401 403/589/413 400/583/414 
f 394/586/401 400/583/414 399/582/402 
f 397/591/404 378/592/415 398/581/416 
f 397/591/404 398/581/416 401/584/405 
s 1
f 420/617/417 421/618/418 422/619/419 423/620/420 
f 423/620/420 422/619/419 424/621/421 425/622/422 
f 425/622/422 424/621/421 426/623/423 427/624/424 
f 427/624/424 426/623/423 428/625/425 429/626/426 
f 429/626/426 428/625/425 430/627/427 431/628/428 
f 431/628/428 430/627/427 432/629/429 433/630/430 
f 433/630/430 432/629/429 434/631/431 435/632/432 
f 435/632/432 434/631/431 421/618/418 420/617/417 
f 422/619/419 421/618/418 436/633/433 
f 424/621/421 422/619/419 436/633/433 
f 426/623/423 424/621/421 436/633/433 
f 428/625/425 426/623/423 436/633/433 
f 430/627/427 428/625/425 436/633/433 
f 432/629/429 430/627/427 436/633/433 
f 434/631/431 432/629/429 436/633/433 
f 421/618/418 434/631/431 436/633/433 
s off
f 437/634/325 438/635/325 439/636/325 440/637/325 
f 441/638/382 442/639/382 443/640/382 444/641/382 
f 445/642/362 446/643/362 447/644/362 448/645/362 
f 449/646/325 450/647/325 438/635/325 437/634/325 
f 451/648/403 452/649/403 453/650/403 454/651/403 
f 455/652/324 456/653/324 457/654/324 458/655/324 
f 448/656/361 459/657/361 460/658/361 445/659/361 
f 461/660/324 462/661/324 443/662/324 442/663/324 
f 462/661/434 461/660/434 458/655/434 457/654/434 
f 463/664/362 452/665/362 451/666/362 
f 464/667/435 447/644/435 446/643/435 465/668/435 
f 466/669/324 453/670/324 452/665/324 463/664/324 
f 467/671/436 464/667/436 465/668/436 468/672/436 
f 469/673/325 457/654/325 456/653/325 470/674/325 
f 469/673/325 462/661/325 457/654/325 
f 461/660/403 466/675/403 458/655/403 
f 466/675/403 463/676/403 455/652/403 458/655/403 
f 455/652/437 463/677/437 470/678/437 456/653/437 
f 466/669/436 461/679/436 471/680/436 453/670/436 
f 471/680/324 461/679/324 442/681/324 
s 1
f 453/650/438 471/682/439 454/651/440 
f 441/638/441 471/682/439 442/639/442 
f 471/682/439 441/638/441 454/651/440 
f 472/683/443 473/684/444 474/685/445 475/686/446 
f 475/686/446 474/685/445 476/687/447 477/688/448 
f 477/688/448 476/687/447 478/689/449 479/690/450 
f 479/690/450 478/689/449 480/691/451 481/692/452 
f 481/692/452 480/691/451 482/693/453 483/694/454 
f 483/694/454 482/693/453 484/695/455 485/696/456 
f 485/696/456 484/695/455 486/697/457 487/698/458 
f 487/698/458 486/697/457 473/684/444 472/683/443 
f 488/699/459 472/683/443 475/686/446 489/700/460 
f 489/700/460 475/686/446 477/688/448 490/701/461 
f 490/701/461 477/688/448 479/690/450 491/702/462 
f 491/702/462 479/690/450 481/692/452 492/703/463 
f 492/703/463 481/692/452 483/694/454 493/704/464 
f 493/704/464 483/694/454 485/696/456 494/705/465 
f 494/705/465 485/696/456 487/698/458 495/706/466 
f 495/706/466 487/698/458 472/683/443 488/699/459 
f 488/707/459 489/708/460 496/709/324 
f 489/708/460 490/710/461 496/709/324 
f 490/710/461 491/711/462 496/709/324 
f 491/711/462 492/712/463 496/709/324 
f 492/712/463 493/713/464 496/709/324 
f 493/713/464 494/714/465 496/709/324 
f 494/714/465 495/715/466 496/709/324 
f 495/715/466 488/707/459 496/709/324 
s off
f 497/716/467 498/717/467 499/718/467 500/719/467 
f 500/719/468 499/718/468 501/720/468 502/721/468 
f 502/722/469 501/723/469 503/724/469 504/725/469 
f 504/725/470 503/724/470 498/717/470 497/716/470 
f 459/726/382 505/727/382 506/728/382 460/729/382 
f 506/730/471 505/731/471 467/671/471 468/672/471 
f 463/664/362 451/666/362 507/732/362 470/733/362 
f 507/734/361 454/735/361 441/736/361 444/737/361 
f 508/738/362 509/739/362 510/740/362 511/741/362 
f 512/742/361 513/743/361 509/744/361 508/745/361 
f 511/741/324 510/740/324 514/746/324 515/747/324 
f 515/747/436 514/746/436 516/748/436 517/749/436 
f 518/750/382 519/751/382 513/752/382 512/753/382 
f 517/749/324 516/748/324 519/754/324 518/755/324 
f 469/756/472 470/733/472 447/644/472 464/667/472 
f 447/644/473 470/733/473 507/732/473 448/645/473 
f 448/656/474 507/734/474 444/737/474 459/657/474 
f 459/726/475 444/641/475 443/640/475 505/727/475 
f 462/757/476 467/671/476 505/731/476 443/758/476 
f 462/757/477 469/756/477 464/667/477 467/671/477 
f 445/642/478 508/738/478 511/741/478 446/643/478 
f 515/747/479 465/668/479 446/643/479 511/741/479 
f 517/749/480 468/672/480 465/668/480 515/747/480 
f 517/749/481 518/755/481 506/730/481 468/672/481 
f 506/728/482 518/750/482 512/753/482 460/729/482 
f 460/658/483 512/742/483 508/745/483 445/659/483 
f 507/734/361 451/759/361 454/735/361 
f 439/760/484 513/752/484 519/751/484 440/761/484 
f 516/748/485 437/762/485 440/763/485 519/754/485 
f 516/748/486 514/746/486 449/764/486 437/765/486 
f 514/746/485 510/740/485 450/766/485 449/764/485 
f 450/766/487 510/740/487 509/739/487 438/767/487 
f 438/635/488 509/744/488 513/743/488 439/636/488 
s 1
f 520/768/489 521/769/489 522/770/362 523/771/362 
f 523/771/362 522/770/362 524/772/403 525/773/403 
f 525/773/403 524/772/403 526/774/335 527/775/335 
f 527/776/335 526/777/335 521/769/489 520/768/489 
s off
f 528/433/490 529/436/490 530/435/490 531/434/490 
f 312/437/319 528/440/319 531/439/319 313/438/319 
f 528/433/491 532/442/491 533/441/491 529/436/491 
f 317/445/321 316/444/321 529/443/321 533/446/321 
f 532/442/492 534/448/492 535/447/492 533/441/492 
f 317/445/323 533/446/323 535/450/323 320/449/323 
f 535/447/361 534/448/361 339/451/361 338/452/361 
s 1
f 323/453/326 320/449/325 535/450/325 338/454/352 
f 531/518/362 530/517/362 361/516/362 313/519/362 
s off
f 316/444/363 361/516/363 530/517/363 529/443/363 
f 532/520/364 528/440/364 312/437/364 362/521/364 
f 362/521/493 363/523/493 534/522/493 532/520/493 
s 1
f 339/524/349 534/522/366 363/523/366 325/525/329 
f 536/526/494 537/529/495 538/528/496 539/527/497 
s 2
f 540/532/356 541/531/356 542/530/356 543/533/356 
s 1
f 544/536/373 540/535/498 543/534/499 545/537/500 
f 546/538/501 544/536/373 545/537/500 547/539/502 
f 548/540/503 549/542/379 550/541/378 
f 551/543/504 546/538/501 547/539/502 552/544/505 
s 2
f 543/533/356 539/546/382 553/545/382 
s 1
f 554/547/506 545/537/500 543/534/499 553/548/507 
f 555/549/508 547/539/502 545/537/500 556/550/509 
s 4
f 557/554/325 558/555/325 559/551/325 542/552/325 
s 1
f 560/553/510 558/555/511 557/554/512 552/544/505 
f 556/550/509 545/537/500 554/547/506 
s 4
f 550/556/324 541/559/324 561/558/324 548/557/324 
s off
f 562/560/513 542/530/513 541/531/513 563/561/513 
s 8
f 542/563/361 564/562/361 557/778/361 
s 1
f 562/565/391 563/564/391 550/541/378 565/566/378 
f 566/567/514 557/554/512 564/562/377 567/568/393 
s 4
f 541/559/324 550/556/324 563/569/324 
f 546/570/324 551/572/324 561/558/324 544/779/324 
s 1
f 555/549/508 556/574/509 568/573/515 560/553/510 
s 4
f 541/559/324 540/575/324 544/779/324 561/558/324 
s 1
f 556/574/509 554/576/506 538/528/496 568/573/515 
f 539/527/497 538/528/496 554/576/506 553/577/507 
f 551/543/504 569/579/516 561/578/517 
s 2
f 539/546/382 543/533/356 542/530/356 536/580/382 
s 1
f 555/549/508 560/553/510 552/544/505 547/539/502 
f 560/553/510 568/573/515 559/551/518 558/555/511 
f 568/573/515 538/528/496 537/529/495 559/551/518 
f 565/566/378 567/568/393 564/562/377 
f 548/540/503 561/578/517 569/579/516 549/542/379 
f 566/567/514 552/544/505 557/554/512 
f 550/541/378 549/542/379 567/568/393 565/566/378 
s 8
f 570/583/399 571/582/398 572/581/398 573/584/399 
s 1
f 551/543/504 552/544/505 566/567/514 569/579/516 
s 2
f 567/585/519 571/582/520 566/586/521 
s 4
f 569/587/403 566/590/403 574/589/403 575/588/403 
s 2
f 569/591/522 575/588/523 573/584/524 
s 8
f 567/585/407 549/592/407 572/581/398 571/582/398 
f 575/588/408 574/589/408 570/583/399 573/584/399 
s off
f 576/595/325 577/594/325 578/593/325 579/596/325 
f 580/599/357 581/598/357 577/597/357 576/600/357 
f 582/601/361 580/599/361 576/600/361 579/596/361 
f 583/602/362 582/601/362 579/596/362 578/593/362 
f 581/603/324 583/602/324 578/593/324 577/604/324 
f 584/607/324 585/606/324 586/605/324 587/608/324 
f 588/609/362 584/607/362 587/608/362 589/610/362 
f 590/611/361 588/609/361 589/610/361 591/612/361 
f 585/613/382 590/611/382 591/612/382 586/614/382 
f 583/602/411 581/603/411 585/606/411 584/607/411 
f 582/601/525 583/602/525 584/607/525 588/609/525 
f 580/599/409 582/601/409 588/609/409 590/611/409 
f 581/598/526 580/599/526 590/611/526 585/613/526 
f 587/608/403 586/616/403 591/615/403 589/610/403 
s 2
f 566/586/521 570/583/527 574/589/528 
f 566/586/521 571/582/520 570/583/527 
f 569/591/522 572/581/529 549/592/530 
f 569/591/522 573/584/524 572/581/529 
s 1
f 592/619/531 593/618/532 594/617/533 595/620/534 
f 596/621/535 592/619/531 595/620/534 597/622/536 
f 598/623/537 596/621/535 597/622/536 599/624/538 
f 600/625/539 598/623/537 599/624/538 601/626/540 
f 602/627/541 600/625/539 601/626/540 603/628/542 
f 604/629/543 602/627/541 603/628/542 605/630/544 
f 606/631/545 604/629/543 605/630/544 607/632/546 
f 593/618/532 606/631/545 607/632/546 594/617/533 
f 592/619/531 608/633/547 593/618/532 
f 596/621/535 608/633/547 592/619/531 
f 598/623/537 608/633/547 596/621/535 
f 600/625/539 608/633/547 598/623/537 
f 602/627/541 608/633/547 600/625/539 
f 604/629/543 608/633/547 602/627/541 
f 606/631/545 608/633/547 604/629/543 
f 593/618/532 608/633/547 606/631/545 
s off
f 609/634/325 610/637/325 611/636/325 612/635/325 
f 613/640/382 614/639/382 615/638/382 616/641/382 
f 617/643/362 618/642/362 619/645/362 620/644/362 
f 621/646/325 609/634/325 612/635/325 622/647/325 
f 623/650/403 624/649/403 625/648/403 626/651/403 
f 627/654/361 628/653/361 629/652/361 630/655/361 
f 631/657/324 619/656/324 618/659/324 632/658/324 
f 613/662/361 633/661/361 634/660/361 614/663/361 
f 630/655/548 634/660/548 633/661/548 627/654/548 
f 635/664/362 625/666/362 624/665/362 
f 636/667/549 637/668/549 617/643/549 620/644/549 
f 624/665/361 623/670/361 638/669/361 635/664/361 
f 639/671/550 640/672/550 637/668/550 636/667/550 
f 641/673/325 642/674/325 628/653/325 627/654/325 
f 641/673/325 627/654/325 633/661/325 
f 634/660/403 630/655/403 638/675/403 
f 638/675/403 630/655/403 629/652/403 635/676/403 
f 642/678/551 635/677/551 629/652/551 628/653/551 
f 638/669/552 623/670/552 643/680/552 634/679/552 
f 643/680/361 614/681/361 634/679/361 
s 1
f 623/650/438 626/651/553 643/682/554 
f 615/638/555 614/639/442 643/682/554 
f 643/682/554 626/651/553 615/638/555 
f 644/685/556 645/684/557 646/683/558 647/686/559 
f 648/687/560 644/685/556 647/686/559 649/688/561 
f 650/689/562 648/687/560 649/688/561 651/690/563 
f 652/691/564 650/689/562 651/690/563 653/692/565 
f 654/693/566 652/691/564 653/692/565 655/694/567 
f 656/695/568 654/693/566 655/694/567 657/696/569 
f 658/697/570 656/695/568 657/696/569 659/698/571 
f 645/684/557 658/697/570 659/698/571 646/683/558 
f 647/686/559 646/683/558 660/699/572 661/700/573 
f 649/688/561 647/686/559 661/700/573 662/701/574 
f 651/690/563 649/688/561 662/701/574 663/702/575 
f 653/692/565 651/690/563 663/702/575 664/703/576 
f 655/694/567 653/692/565 664/703/576 665/704/577 
f 657/696/569 655/694/567 665/704/577 666/705/578 
f 659/698/571 657/696/569 666/705/578 667/706/579 
f 646/683/558 659/698/571 667/706/579 660/699/572 
f 660/707/572 668/709/361 661/708/573 
f 661/708/573 668/709/361 662/710/574 
f 662/710/574 668/709/361 663/711/575 
f 663/711/575 668/709/361 664/712/576 
f 664/712/576 668/709/361 665/713/577 
f 665/713/577 668/709/361 666/714/578 
f 666/714/578 668/709/361 667/715/579 
f 667/715/579 668/709/361 660/707/572 
s off
f 669/780/468 670/717/468 671/716/468 672/781/468 
f 673/720/467 669/780/467 672/781/467 674/721/467 
f 675/782/470 673/723/470 674/722/470 676/783/470 
f 670/717/469 675/782/469 676/783/469 671/716/469 
f 677/727/382 631/726/382 632/729/382 678/728/382 
f 677/731/580 678/730/580 640/672/580 639/671/580 
f 635/664/362 642/733/362 679/732/362 625/666/362 
f 679/734/324 616/737/324 615/736/324 626/735/324 
f 680/740/362 681/739/362 682/738/362 683/741/362 
f 681/744/324 684/743/324 685/742/324 682/745/324 
f 686/746/361 680/740/361 683/741/361 687/747/361 
f 688/748/552 686/746/552 687/747/552 689/749/552 
f 684/752/382 690/751/382 691/750/382 685/753/382 
f 690/754/361 688/748/361 689/749/361 691/755/361 
f 641/756/581 636/667/581 620/644/581 642/733/581 
f 679/732/473 642/733/473 620/644/473 619/645/473 
f 616/737/582 679/734/582 619/656/582 631/657/582 
f 613/640/475 616/641/475 631/726/475 677/727/475 
f 633/757/583 613/758/583 677/731/583 639/671/583 
f 633/757/584 639/671/584 636/667/584 641/756/584 
f 683/741/478 682/738/478 618/642/478 617/643/478 
f 687/747/585 683/741/585 617/643/585 637/668/585 
f 689/749/586 687/747/586 637/668/586 640/672/586 
f 689/749/587 640/672/587 678/730/587 691/755/587 
f 685/753/482 691/750/482 678/728/482 632/729/482 
f 682/745/588 685/742/588 632/658/588 618/659/588 
f 679/734/324 626/735/324 625/759/324 
f 690/751/484 684/752/484 611/760/484 610/761/484 
f 688/748/488 690/754/488 610/763/488 609/762/488 
f 688/748/589 609/765/589 621/764/589 686/746/589 
f 686/746/488 621/764/488 622/766/488 680/740/488 
f 681/739/487 680/740/487 622/766/487 612/767/487 
f 684/743/485 681/744/485 612/635/485 611/636/485 
s 1
f 692/770/362 693/772/489 694/773/489 695/771/362 
f 696/769/403 692/770/362 695/771/362 697/768/403 
f 698/777/335 696/769/403 697/768/403 699/776/335 
f 693/772/489 698/774/335 699/775/335 694/773/489 
s 4
f 393/566/324 390/565/324 368/563/324 
s 8
f 388/555/325 387/554/325 368/552/325 385/551/325 
s 4
f 392/562/324 393/566/324 368/563/324 
f 537/529/325 536/526/325 542/552/325 
s 8
f 542/563/361 562/565/361 565/566/361 
s 4
f 559/551/325 537/529/325 542/552/325 
s 8
f 542/563/361 565/566/361 564/562/361 
s 1
f 700/784/590 701/785/591 702/786/592 703/787/593 
f 704/788/594 705/789/595 701/785/591 700/784/590 
f 706/790/596 707/791/597 705/789/595 704/788/594 
f 708/792/598 709/793/599 707/791/597 706/790/596 
f 710/794/600 711/795/601 709/793/599 708/792/598 
f 712/796/602 713/797/603 711/795/601 710/794/600 
f 714/798/604 715/799/605 713/797/603 712/796/602 
f 703/787/593 702/786/592 715/799/605 714/798/604 
f 702/800/592 701/801/591 716/802/325 
f 701/801/591 705/803/595 716/802/325 
f 705/803/595 707/804/597 716/802/325 
f 707/804/597 709/805/599 716/802/325 
f 709/805/599 711/806/601 716/802/325 
f 711/806/601 713/807/603 716/802/325 
f 713/807/603 715/808/605 716/802/325 
f 715/808/605 702/800/592 716/802/325 
f 717/784/590 718/785/591 719/786/592 720/787/593 
f 721/788/594 722/789/595 718/785/591 717/784/590 
f 723/790/596 724/791/597 722/789/595 721/788/594 
f 725/792/598 726/793/599 724/791/597 723/790/596 
f 727/794/600 728/795/601 726/793/599 725/792/598 
f 729/796/602 730/797/603 728/795/601 727/794/600 
f 731/798/604 732/799/605 730/797/603 729/796/602 
f 720/787/593 719/786/592 732/799/605 731/798/604 
f 719/800/592 718/801/591 733/802/325 
f 718/801/591 722/803/595 733/802/325 
f 722/803/595 724/804/597 733/802/325 
f 724/804/597 726/805/599 733/802/325 
f 726/805/599 728/806/601 733/802/325 
f 728/806/601 730/807/603 733/802/325 
f 730/807/603 732/808/605 733/802/325 
f 732/808/605 719/800/592 733/802/325 
# 310 polygons - 112 triangles

